<svg width="346" height="40" viewBox="0 0 346 40" fill="none" xmlns="http://www.w3.org/2000/svg">
<g clip-path="url(#clip0_1234_17334)">
<path d="M20.2341 0.616731C22.1082 0.162133 24.1217 0.433398 25.852 1.26156C26.8781 1.84892 27.5857 2.87248 27.9626 3.97133C28.5222 5.59144 28.5448 7.338 28.4112 9.0288C28.184 11.4897 27.5938 13.911 26.7503 16.2334C26.4538 17.0219 26.1393 17.8093 25.715 18.5403C25.63 18.6874 25.5375 18.8317 25.4173 18.9535C25.8433 17.8443 26.1711 16.7001 26.4457 15.5455C26.8255 13.8972 27.0764 12.211 27.0579 10.5167C27.0463 8.89317 26.7752 7.22708 25.9769 5.79144C25.1508 4.29144 23.6726 3.14259 21.9845 2.7811C20.5722 2.47708 19.0969 2.76041 17.7847 3.31501C16.0238 4.06098 14.4751 5.22305 13.0755 6.50696C12.3604 7.16903 11.6898 7.87765 11.0551 8.61616C12.0037 6.94547 13.183 5.40121 14.5433 4.03972C16.1232 2.4719 18.0332 1.1334 20.2341 0.616731Z" fill="white"/>
<path d="M15.041 2.896C12.6194 5.2322 10.5741 7.94485 8.9167 10.8638C7.95995 12.569 7.14195 14.3529 6.51472 16.204C5.92101 17.9242 5.51056 19.7046 5.25331 21.5046C5.02786 23.0402 4.92669 24.5977 5.02439 26.1483C5.13538 27.7029 5.46027 29.277 6.23665 30.6466C6.83787 31.6937 7.74028 32.6494 8.92191 33.0247C8.85831 33.0931 8.7583 33.0966 8.6739 33.1247C7.57437 33.4213 6.38754 33.5138 5.28106 33.2006C4.42721 32.9627 3.66471 32.423 3.16292 31.696C2.50042 30.7471 2.23623 29.5868 2.13391 28.4529C1.9836 26.4834 2.26398 24.5104 2.6698 22.5862C2.95423 21.2529 3.31149 19.9362 3.71153 18.6334C3.8046 18.3448 3.87802 18.0483 4.00231 17.7707C4.79257 16.0017 5.70365 14.2874 6.69682 12.623C7.98713 10.4776 9.43179 8.41783 11.0938 6.5391C12.2835 5.19887 13.5877 3.95117 15.041 2.896Z" fill="white"/>
<path d="M25.6341 19.2449C27.5193 19.2317 29.405 19.242 31.2908 19.2397C31.2913 19.6932 31.2908 20.1461 31.2913 20.5995C30.5884 20.603 29.8848 20.5966 29.1819 20.603C29.1859 22.8277 29.1807 25.0524 29.1842 27.2777C28.7072 27.2794 28.2303 27.2713 27.754 27.2817C27.7355 25.0553 27.7493 22.8277 27.7465 20.6007C27.0423 20.5978 26.3382 20.6047 25.6341 20.5972C25.6405 20.1466 25.6405 19.6955 25.6341 19.2449Z" fill="white"/>
<path d="M7.32003 19.3408C8.23631 19.3425 9.15317 19.3414 10.07 19.342C10.5915 19.3471 11.1152 19.3517 11.6332 19.4219C12.2737 19.5155 12.8362 19.9443 13.1438 20.5035C13.3756 20.9276 13.4444 21.4201 13.4334 21.8971C13.4195 22.3523 13.3172 22.8173 13.0565 23.1983C12.7004 23.7644 12.0668 24.1385 11.4031 24.2115C10.584 24.3115 9.75728 24.2793 8.93465 24.2822C8.93407 25.2782 8.92713 26.2747 8.93812 27.2713C8.39818 27.2828 7.85766 27.277 7.31714 27.2742C7.32523 24.6299 7.31945 21.9851 7.32003 19.3408ZM8.9306 20.6897C8.93523 21.4374 8.93349 22.1851 8.93176 22.9328C9.53818 22.9431 10.1481 22.9529 10.7528 22.8885C11.0487 22.8575 11.3424 22.7299 11.5338 22.4971C11.8084 22.1638 11.8471 21.6673 11.654 21.2862C11.4731 20.942 11.0892 20.7402 10.7071 20.7173C10.1163 20.6782 9.52257 20.6707 8.9306 20.6897Z" fill="white"/>
<path d="M13.6623 19.3489C15.5486 19.3369 17.4361 19.3449 19.323 19.3449C19.3224 19.7978 19.323 20.2501 19.3224 20.703C18.6171 20.7122 17.9113 20.6909 17.2066 20.7139C17.2216 22.9363 17.2112 25.1599 17.2118 27.3828C16.7326 27.3771 16.2539 27.3817 15.7752 27.3805C15.7775 25.1553 15.7747 22.93 15.777 20.7047C15.0734 20.703 14.3699 20.7053 13.6663 20.7041C13.6663 20.2518 13.6739 19.8001 13.6623 19.3489Z" fill="white"/>
<path d="M21.6088 22.3489C22.1545 22.8885 22.6997 23.4288 23.2408 23.9736C23.235 25.0747 23.2402 26.1765 23.2385 27.2776C22.6945 27.3132 22.1505 27.3437 21.6065 27.3811C21.6094 25.7035 21.6054 24.0265 21.6088 22.3489Z" fill="white"/>
<path d="M19.8254 25.4499C20.3781 24.6798 20.907 23.862 21.155 22.939C21.1828 24.2792 21.1498 25.6194 21.1672 26.9602C21.166 27.0315 21.1203 27.0907 21.0908 27.1533C20.0913 29.0211 18.5438 30.5372 16.8638 31.8068C15.7117 32.6717 14.4751 33.4223 13.1964 34.0878C12.3778 34.5183 11.5164 34.8752 10.6158 35.0947C9.45783 35.3792 8.2288 35.428 7.06625 35.1424C5.55799 34.7763 4.19658 33.8723 3.24792 32.6551C3.96014 33.3798 4.95504 33.7746 5.95688 33.8838C7.27956 34.0344 8.61207 33.7395 9.84399 33.2706C11.7638 32.5303 13.4779 31.3602 15.0879 30.101C16.8314 28.7321 18.4987 27.2315 19.8254 25.4499Z" fill="white"/>
<path d="M0.730317 36.0432C5.30825 36.0496 9.88677 36.0455 14.4647 36.0455C15.1272 36.034 15.8579 36.0369 16.4146 36.4461C16.9523 36.0197 17.6807 36.0352 18.3322 36.0415C22.8257 36.0438 27.3187 36.0438 31.8116 36.0421C31.811 36.2438 31.8162 36.4461 31.8076 36.649C27.2019 36.6496 22.5962 36.6513 17.9905 36.6467C17.6188 36.6507 17.224 36.6691 16.8939 36.8559C16.7979 36.9042 16.7418 36.9967 16.6996 37.0909C16.5031 37.0984 16.3071 37.1082 16.1111 37.122C16.0973 36.9214 15.9001 36.826 15.7307 36.7725C15.1896 36.5984 14.6139 36.6628 14.0554 36.6536C9.61391 36.6559 5.1724 36.6484 0.730895 36.657C0.72627 36.4524 0.727426 36.2478 0.730317 36.0432Z" fill="white"/>
<path d="M0.727417 37.0933C5.42329 37.0956 10.1186 37.0938 14.8139 37.0938C15.3116 37.1266 15.792 37.368 16.099 37.7617C16.1001 38.3915 16.0996 39.022 16.099 39.6519C15.792 39.1025 15.1122 38.9237 14.5219 38.9231C9.92434 38.9369 5.32674 38.9611 0.729729 38.9904C0.726261 38.3582 0.730307 37.7254 0.727417 37.0933Z" fill="white"/>
<path d="M16.4377 37.7673C16.7464 37.3599 17.2442 37.1196 17.7529 37.0921C22.4361 37.0944 27.1198 37.0984 31.8029 37.0903C31.8249 37.7219 31.8058 38.3553 31.8122 38.9875C27.203 38.965 22.5939 38.934 17.9841 38.9237C17.4043 38.9288 16.7482 39.1122 16.4401 39.6438C16.4377 39.0185 16.4435 38.3926 16.4377 37.7673Z" fill="white"/>
<path d="M24.0611 15.2571C24.0801 15.1841 24.1218 15.1197 24.1588 15.0542C23.9801 16.4565 23.7535 17.8536 23.5599 19.2548C23.1818 19.441 22.8257 19.672 22.4384 19.8398C22.8737 18.5921 23.335 17.3536 23.7807 16.1094C23.8772 15.826 24.0027 15.5519 24.0611 15.2571Z" fill="white"/>
<path d="M19.8942 19.2627C20.4896 19.5248 21.0758 19.8081 21.6701 20.0725C21.7493 20.1052 21.8221 20.1518 21.8886 20.2064C21.4781 20.3587 21.066 20.5064 20.6555 20.6592C20.4 20.1949 20.1318 19.7363 19.8942 19.2627Z" fill="white"/>
<path d="M19.0236 23.5005C20.0474 22.5125 21.0585 21.5108 22.0886 20.5298C22.4621 21.4556 22.8598 22.3735 23.2026 23.3102C22.7731 22.8459 22.3655 22.3608 21.9533 21.8809C20.9371 22.462 19.9462 23.0901 18.9218 23.6562C18.9496 23.6005 18.9767 23.543 19.0236 23.5005Z" fill="white"/>
<path d="M21.8747 19.2252C22.6037 17.9028 23.3148 16.5695 24.0611 15.2568C24.0027 15.5517 23.8773 15.8258 23.7807 16.1091C23.335 17.3534 22.8737 18.5919 22.4384 19.8396C22.8257 19.6718 23.1818 19.4407 23.5599 19.2545C24.1628 19.2344 24.767 19.2534 25.3705 19.2292C25.3722 19.2448 25.3763 19.2752 25.378 19.2907C25.3653 19.293 25.3404 19.2976 25.3277 19.3005C25.2167 19.3206 25.1069 19.343 25.0005 19.3798C24.1039 19.6942 23.2032 19.9965 22.3066 20.3103C22.6014 20.4821 22.9321 20.581 23.239 20.7292C23.2344 21.6086 23.246 22.4884 23.2333 23.3678C23.2252 23.3534 23.2101 23.3247 23.2026 23.3103C22.8598 22.3735 22.4621 21.4557 22.0886 20.5298C21.0585 21.5109 20.0474 22.5126 19.0236 23.5005C18.9767 23.543 18.9496 23.6005 18.9218 23.6563C18.8871 23.7206 18.7998 23.7321 18.7438 23.7724C19.3884 22.7396 20.0156 21.6953 20.6555 20.6591C21.066 20.5063 21.4782 20.3586 21.8886 20.2063C21.8221 20.1517 21.7493 20.1051 21.6701 20.0724C21.0758 19.808 20.4896 19.5247 19.8942 19.2626L19.8722 19.2534C20.5393 19.2367 21.207 19.2419 21.8747 19.2252Z" fill="white"/>
<path d="M25.0005 19.3798C25.1069 19.3431 25.2167 19.3207 25.3277 19.3005C24.638 19.7862 23.9351 20.2534 23.239 20.7293C22.9321 20.581 22.6014 20.4821 22.3066 20.3103C23.2032 19.9965 24.1039 19.6942 25.0005 19.3798Z" fill="white"/>
</g>
<path d="M44.3309 16V6.84033H46.2479V10.5601H50.3738V6.84033H52.2908V16H50.3738V12.1406H46.2479V16H44.3309ZM58.2066 16.1587C55.4834 16.1587 53.7886 14.3369 53.7886 11.4233V11.4106C53.7886 8.49707 55.4961 6.68164 58.2066 6.68164C60.9234 6.68164 62.6246 8.50342 62.6246 11.4106V11.4233C62.6246 14.3369 60.9297 16.1587 58.2066 16.1587ZM58.2066 14.5337C59.73 14.5337 60.6695 13.3213 60.6695 11.4233V11.4106C60.6695 9.5 59.711 8.30664 58.2066 8.30664C56.7085 8.30664 55.7437 9.49365 55.7437 11.4106V11.4233C55.7437 13.3403 56.7022 14.5337 58.2066 14.5337ZM58.2066 18.7993C57.648 18.7993 57.2164 18.3613 57.2164 17.8345C57.2164 17.3076 57.648 16.8696 58.2066 16.8696C58.7652 16.8696 59.1968 17.3076 59.1968 17.8345C59.1968 18.3613 58.7652 18.7993 58.2066 18.7993ZM68.1976 16.1587C65.5188 16.1587 63.8367 14.3687 63.8367 11.417V11.4106C63.8367 8.45898 65.5252 6.68164 68.1976 6.68164C70.4192 6.68164 72.0125 8.08447 72.1902 10.0269L72.1966 10.084H70.3304L70.305 9.97607C70.0892 8.9668 69.3401 8.30664 68.1976 8.30664C66.7312 8.30664 65.7918 9.4873 65.7918 11.4043V11.4106C65.7918 13.3403 66.7312 14.5337 68.1976 14.5337C69.302 14.5337 70.0765 13.8989 70.324 12.8135L70.3367 12.75H72.2029L72.1966 12.8198C72.0188 14.7686 70.4129 16.1587 68.1976 16.1587ZM78.969 16L75.9031 6.84033H78.0232L80.1179 14.0386H80.156L82.2444 6.84033H84.3709L81.305 16H78.969ZM85.5703 16V6.84033H87.4873V16H85.5703ZM90.096 6.08496L91.5559 3.99023H93.0413L94.5203 6.08496H93.2L92.2922 4.81543L91.4163 6.08496H90.096ZM89.2708 16V6.84033H95.3391V8.4209H91.1877V10.6172H95.1043V12.1152H91.1877V14.4194H95.3391V16H89.2708ZM92.3049 18.7993C91.7527 18.7993 91.3147 18.3613 91.3147 17.8345C91.3147 17.3076 91.7527 16.8696 92.3049 16.8696C92.8635 16.8696 93.2952 17.3076 93.2952 17.8345C93.2952 18.3613 92.8635 18.7993 92.3049 18.7993ZM96.9829 16V6.84033H98.6587L102.797 12.7944H102.835V6.84033H104.746V16H103.083L98.9316 10.0015H98.8935V16H96.9829ZM113.448 16.1587C110.77 16.1587 109.087 14.3687 109.087 11.417V11.4106C109.087 8.45898 110.776 6.68164 113.448 6.68164C115.67 6.68164 117.263 8.08447 117.441 10.0269L117.447 10.084H115.581L115.556 9.97607C115.34 8.9668 114.591 8.30664 113.448 8.30664C111.982 8.30664 111.042 9.4873 111.042 11.4043V11.4106C111.042 13.3403 111.982 14.5337 113.448 14.5337C114.553 14.5337 115.327 13.8989 115.575 12.8135L115.587 12.75H117.454L117.447 12.8198C117.27 14.7686 115.664 16.1587 113.448 16.1587ZM120.818 6.08496L122.284 3.99023H123.769L125.242 6.08496H123.922L123.014 4.81543L122.138 6.08496H120.818ZM123.033 16.1587C120.31 16.1587 118.615 14.3369 118.615 11.4233V11.4106C118.615 8.49707 120.322 6.68164 123.033 6.68164C125.75 6.68164 127.451 8.50342 127.451 11.4106V11.4233C127.451 14.3369 125.756 16.1587 123.033 16.1587ZM123.033 14.5337C124.556 14.5337 125.496 13.3213 125.496 11.4233V11.4106C125.496 9.5 124.537 8.30664 123.033 8.30664C121.535 8.30664 120.57 9.49365 120.57 11.4106V11.4233C120.57 13.3403 121.529 14.5337 123.033 14.5337ZM128.949 16V6.84033H130.624L134.763 12.7944H134.801V6.84033H136.712V16H135.049L130.897 10.0015H130.859V16H128.949ZM142.628 16.1587C139.892 16.1587 138.216 14.375 138.216 11.3916V11.3853C138.216 8.45264 139.898 6.68164 142.583 6.68164C144.786 6.68164 146.284 7.96387 146.589 9.68408L146.608 9.77295H144.684L144.659 9.70947C144.354 8.8208 143.624 8.30664 142.59 8.30664C141.079 8.30664 140.171 9.42383 140.171 11.3662V11.3726C140.171 13.3594 141.136 14.5337 142.659 14.5337C143.91 14.5337 144.767 13.791 144.818 12.6611L144.824 12.5278H142.729V11.0996H146.69V12.1533C146.69 14.6479 145.179 16.1587 142.628 16.1587ZM151.057 16V6.84033H152.733L156.871 12.7944H156.909V6.84033H158.82V16H157.157L153.006 10.0015H152.967V16H151.057ZM164.736 16.1587C162 16.1587 160.324 14.375 160.324 11.3916V11.3853C160.324 8.45264 162.006 6.68164 164.691 6.68164C166.894 6.68164 168.392 7.96387 168.697 9.68408L168.716 9.77295H166.792L166.767 9.70947C166.462 8.8208 165.732 8.30664 164.698 8.30664C163.187 8.30664 162.279 9.42383 162.279 11.3662V11.3726C162.279 13.3594 163.244 14.5337 164.767 14.5337C166.018 14.5337 166.875 13.791 166.926 12.6611L166.932 12.5278H164.837V11.0996H168.798V12.1533C168.798 14.6479 167.288 16.1587 164.736 16.1587ZM170.328 16V6.84033H172.245V10.5601H176.371V6.84033H178.288V16H176.371V12.1406H172.245V16H170.328ZM180.896 6.08496L182.356 3.99023H183.842L185.321 6.08496H184L183.093 4.81543L182.217 6.08496H180.896ZM180.071 16V6.84033H186.14V8.4209H181.988V10.6172H185.905V12.1152H181.988V14.4194H186.14V16H180.071ZM183.105 18.7993C182.553 18.7993 182.115 18.3613 182.115 17.8345C182.115 17.3076 182.553 16.8696 183.105 16.8696C183.664 16.8696 184.096 17.3076 184.096 17.8345C184.096 18.3613 183.664 18.7993 183.105 18.7993ZM190.62 16V6.84033H194.607C196.333 6.84033 197.419 7.729 197.419 9.13818V9.15088C197.419 10.1538 196.657 11.0107 195.648 11.144V11.1821C196.924 11.2773 197.844 12.1787 197.844 13.3784V13.3911C197.844 14.9971 196.632 16 194.677 16H190.62ZM194.112 8.26221H192.537V10.668H193.877C194.956 10.668 195.534 10.2173 195.534 9.42383V9.41113C195.534 8.68115 195.007 8.26221 194.112 8.26221ZM194.105 11.9692H192.537V14.5718H194.188C195.286 14.5718 195.889 14.1211 195.889 13.2705V13.2578C195.889 12.4199 195.28 11.9692 194.105 11.9692ZM203.036 16.1587C200.688 16.1587 199.196 14.8003 199.196 12.7627V6.84033H201.113V12.5913C201.113 13.7783 201.805 14.5337 203.036 14.5337C204.268 14.5337 204.953 13.7783 204.953 12.5913V6.84033C206.35 6.66895 206.661 6.26904 206.648 4.92969H208.076C208.076 6.28809 207.765 6.99268 206.87 7.39258V12.7627C206.87 14.7939 205.398 16.1587 203.036 16.1587ZM212.818 16.1587C210.469 16.1587 208.977 14.8003 208.977 12.7627V6.84033H210.894V12.5913C210.894 13.7783 211.586 14.5337 212.818 14.5337C214.049 14.5337 214.735 13.7783 214.735 12.5913V6.84033H216.652V12.7627C216.652 14.7939 215.179 16.1587 212.818 16.1587ZM225.354 16.1587C222.675 16.1587 220.993 14.3687 220.993 11.417V11.4106C220.993 8.45898 222.681 6.68164 225.354 6.68164C227.576 6.68164 229.169 8.08447 229.347 10.0269L229.353 10.084H227.487L227.461 9.97607C227.245 8.9668 226.496 8.30664 225.354 8.30664C223.888 8.30664 222.948 9.4873 222.948 11.4043V11.4106C222.948 13.3403 223.888 14.5337 225.354 14.5337C226.458 14.5337 227.233 13.8989 227.48 12.8135L227.493 12.75H229.359L229.353 12.8198C229.175 14.7686 227.569 16.1587 225.354 16.1587ZM230.806 16V6.84033H232.723V10.5601H236.849V6.84033H238.766V16H236.849V12.1406H232.723V16H230.806ZM241.984 6.08496H240.753L241.857 3.99023H243.482L241.984 6.08496ZM240.55 16V6.84033H242.467V16H240.55ZM244.25 16V6.84033H245.926L250.064 12.7944H250.103V6.84033H252.013V16H250.35L246.199 10.0015H246.161V16H244.25ZM253.803 16V6.84033H255.72V10.5601H259.846V6.84033H261.763V16H259.846V12.1406H255.72V16H253.803ZM268.865 16L265.8 6.84033H267.92L270.014 14.0386H270.053L272.141 6.84033H274.267L271.201 16H268.865ZM275.467 16V6.84033H277.384V16H275.467ZM283.001 4.87891C282.703 4.87891 282.43 4.80908 282.163 4.66309L282.005 4.56787C281.833 4.47266 281.719 4.42822 281.573 4.42822C281.364 4.42822 281.275 4.58057 281.275 4.85986V4.87891H280.342V4.82178C280.342 4.04102 280.792 3.62207 281.402 3.62207C281.687 3.62207 281.967 3.69824 282.227 3.85059L282.392 3.93945C282.563 4.04102 282.677 4.0791 282.836 4.0791C283.039 4.0791 283.135 3.92676 283.135 3.64746V3.62207H284.061V3.6792C284.061 4.46631 283.604 4.87891 283.001 4.87891ZM281.586 5.13916H282.811L284.182 6.42139H282.912L282.195 5.74854L281.497 6.42139H280.227L281.586 5.13916ZM279.167 16V6.84033H285.236V8.4209H281.084V10.6172H285.001V12.1152H281.084V14.4194H285.236V16H279.167ZM286.879 16V6.84033H288.555L292.694 12.7944H292.732V6.84033H294.643V16H292.979L288.828 10.0015H288.79V16H286.879ZM301.459 16V8.4209H298.812V6.84033H306.03V8.4209H303.376V16H301.459ZM307.35 16V6.84033H309.267V10.5601H313.393V6.84033H315.31V16H313.393V12.1406H309.267V16H307.35ZM319.01 6.08496L320.477 3.99023H321.962L323.435 6.08496H322.114L321.206 4.81543L320.331 6.08496H319.01ZM321.226 16.1587C318.502 16.1587 316.808 14.3369 316.808 11.4233V11.4106C316.808 8.49707 318.515 6.68164 321.226 6.68164C323.942 6.68164 325.643 8.50342 325.643 11.4106V11.4233C325.643 14.3369 323.949 16.1587 321.226 16.1587ZM321.226 14.5337C322.749 14.5337 323.688 13.3213 323.688 11.4233V11.4106C323.688 9.5 322.73 8.30664 321.226 8.30664C319.727 8.30664 318.763 9.49365 318.763 11.4106V11.4233C318.763 13.3403 319.721 14.5337 321.226 14.5337ZM327.141 16V6.84033H328.817L332.956 12.7944H332.994V6.84033H334.904V16H333.241L329.09 10.0015H329.052V16H327.141ZM340.82 16.1587C338.084 16.1587 336.409 14.375 336.409 11.3916V11.3853C336.409 8.45264 338.091 6.68164 340.776 6.68164C342.978 6.68164 344.477 7.96387 344.781 9.68408L344.8 9.77295H342.877L342.852 9.70947C342.547 8.8208 341.817 8.30664 340.782 8.30664C339.271 8.30664 338.364 9.42383 338.364 11.3662V11.3726C338.364 13.3594 339.329 14.5337 340.852 14.5337C342.102 14.5337 342.959 13.791 343.01 12.6611L343.017 12.5278H340.922V11.0996H344.883V12.1533C344.883 14.6479 343.372 16.1587 340.82 16.1587Z" fill="white"/>
<path d="M44.3667 34V25.7798H47.2947C48.8385 25.7798 49.9323 26.8451 49.9323 28.4059V28.4173C49.9323 29.9782 48.8385 31.0662 47.2947 31.0662H45.3921V34H44.3667ZM47.0327 26.6912H45.3921V30.1548H47.0327C48.2062 30.1548 48.8841 29.5111 48.8841 28.4287V28.4173C48.8841 27.335 48.2062 26.6912 47.0327 26.6912ZM53.8281 34.1139C52.1818 34.1139 51.0823 32.9233 51.0823 31.0378V31.0264C51.0823 29.1408 52.1874 27.9616 53.8224 27.9616C55.4573 27.9616 56.5681 29.1351 56.5681 31.0264V31.0378C56.5681 32.929 55.463 34.1139 53.8281 34.1139ZM53.8338 33.2367C54.8763 33.2367 55.5541 32.4277 55.5541 31.0378V31.0264C55.5541 29.6364 54.8706 28.8389 53.8224 28.8389C52.7913 28.8389 52.0963 29.6421 52.0963 31.0264V31.0378C52.0963 32.4334 52.7856 33.2367 53.8338 33.2367ZM60.3728 34.1139C58.9771 34.1139 58.134 33.4019 58.0144 32.3423L58.0087 32.291H58.9999L59.0113 32.348C59.1309 32.9404 59.5696 33.2879 60.3785 33.2879C61.1817 33.2879 61.6602 32.9518 61.6602 32.4163V32.4106C61.6602 31.9834 61.4381 31.7441 60.7659 31.5789L59.8259 31.3511C58.7094 31.0833 58.1682 30.5649 58.1682 29.7104V29.7048C58.1682 28.6851 59.0626 27.9616 60.3443 27.9616C61.6431 27.9616 62.4692 28.7192 62.5432 29.7104L62.5489 29.7845H61.6033L61.5976 29.7446C61.5178 29.1693 61.0792 28.7876 60.3443 28.7876C59.6265 28.7876 59.1822 29.1351 59.1822 29.6592V29.6649C59.1822 30.0693 59.45 30.3485 60.1051 30.508L61.045 30.7358C62.2413 31.0264 62.6742 31.4992 62.6742 32.3423V32.348C62.6742 33.3848 61.6944 34.1139 60.3728 34.1139ZM66.3308 34.1139C65.2427 34.1139 64.7072 33.624 64.7072 32.4904V28.8958H63.8414V28.0755H64.7072V26.4748H65.7326V28.0755H66.8606V28.8958H65.7326V32.4847C65.7326 33.117 66.0118 33.2936 66.5416 33.2936C66.6612 33.2936 66.7751 33.2765 66.8606 33.2708V34.0741C66.7352 34.0911 66.5245 34.1139 66.3308 34.1139ZM70.7279 34.1139C69.3322 34.1139 68.4891 33.4019 68.3695 32.3423L68.3638 32.291H69.355L69.3664 32.348C69.486 32.9404 69.9247 33.2879 70.7336 33.2879C71.5368 33.2879 72.0153 32.9518 72.0153 32.4163V32.4106C72.0153 31.9834 71.7931 31.7441 71.1209 31.5789L70.181 31.3511C69.0645 31.0833 68.5233 30.5649 68.5233 29.7104V29.7048C68.5233 28.6851 69.4177 27.9616 70.6994 27.9616C71.9982 27.9616 72.8242 28.7192 72.8983 29.7104L72.904 29.7845H71.9584L71.9527 29.7446C71.8729 29.1693 71.4343 28.7876 70.6994 28.7876C69.9816 28.7876 69.5373 29.1351 69.5373 29.6592V29.6649C69.5373 30.0693 69.805 30.3485 70.4601 30.508L71.4001 30.7358C72.5964 31.0264 73.0293 31.4992 73.0293 32.3423V32.348C73.0293 33.3848 72.0495 34.1139 70.7279 34.1139ZM79.5848 34.1139C78.4056 34.1139 77.6137 33.4019 77.6137 32.3252V32.3138C77.6137 31.3055 78.3999 30.6732 79.7613 30.5934L81.4589 30.4966V30.001C81.4589 29.2775 80.9861 28.8389 80.1601 28.8389C79.3968 28.8389 78.9182 29.2034 78.8043 29.7332L78.7929 29.7845H77.8359L77.8416 29.7218C77.927 28.7477 78.7758 27.9616 80.1715 27.9616C81.5729 27.9616 82.4501 28.7192 82.4501 29.9041V34H81.4589V33.0373H81.4362C81.0887 33.6867 80.3766 34.1139 79.5848 34.1139ZM78.6277 32.3252C78.6277 32.8949 79.0948 33.2537 79.8069 33.2537C80.7412 33.2537 81.4589 32.61 81.4589 31.7498V31.2656L79.8753 31.3625C79.0834 31.408 78.6277 31.7612 78.6277 32.3138V32.3252ZM84.4091 34V28.0755H85.4003V28.9186H85.4231C85.7421 28.366 86.346 27.9616 87.246 27.9616C88.5448 27.9616 89.2968 28.8047 89.2968 30.1548V34H88.3056V30.3314C88.3056 29.3687 87.8556 28.8389 86.9441 28.8389C86.0099 28.8389 85.4003 29.5054 85.4003 30.5137V34H84.4091ZM93.4888 34.1139C91.9735 34.1139 90.9709 32.9062 90.9709 31.0378V31.0321C90.9709 29.1636 91.9849 27.9616 93.4717 27.9616C94.3091 27.9616 94.9984 28.3831 95.3687 29.0667H95.3915V25.7798H96.3827V34H95.3915V32.9974H95.3687C94.9984 33.6867 94.3376 34.1139 93.4888 34.1139ZM93.6825 33.2367C94.6851 33.2367 95.3972 32.3651 95.3972 31.0378V31.0321C95.3972 29.7104 94.6794 28.8389 93.6825 28.8389C92.6343 28.8389 91.9849 29.682 91.9849 31.0321V31.0378C91.9849 32.3993 92.6343 33.2367 93.6825 33.2367ZM103.747 34V26.7026H101.155V25.7798H107.364V26.7026H104.772V34H103.747ZM109.893 34.1139C108.19 34.1139 107.164 32.9233 107.164 31.0605V31.0548C107.164 29.2205 108.213 27.9616 109.83 27.9616C111.448 27.9616 112.434 29.1636 112.434 30.9409V31.3055H108.167C108.19 32.5246 108.862 33.2367 109.916 33.2367C110.668 33.2367 111.198 32.8607 111.368 32.3537L111.386 32.3024H112.36L112.348 32.3594C112.155 33.3392 111.186 34.1139 109.893 34.1139ZM109.825 28.8389C108.964 28.8389 108.292 29.4256 108.184 30.5308H111.425C111.329 29.38 110.691 28.8389 109.825 28.8389ZM114.188 34V25.7798H115.179V34H114.188ZM119.656 34.1139C117.952 34.1139 116.927 32.9233 116.927 31.0605V31.0548C116.927 29.2205 117.975 27.9616 119.593 27.9616C121.211 27.9616 122.196 29.1636 122.196 30.9409V31.3055H117.93C117.952 32.5246 118.625 33.2367 119.678 33.2367C120.43 33.2367 120.96 32.8607 121.131 32.3537L121.148 32.3024H122.122L122.111 32.3594C121.917 33.3392 120.949 34.1139 119.656 34.1139ZM119.587 28.8389C118.727 28.8389 118.055 29.4256 117.947 30.5308H121.188C121.091 29.38 120.453 28.8389 119.587 28.8389ZM126.354 34.1139C124.674 34.1139 123.608 32.9176 123.608 31.0321V31.0264C123.608 29.1579 124.696 27.9616 126.343 27.9616C127.818 27.9616 128.69 28.9414 128.815 29.9554L128.821 30.001H127.852L127.841 29.9554C127.693 29.363 127.214 28.8389 126.343 28.8389C125.312 28.8389 124.622 29.6934 124.622 31.0378V31.0435C124.622 32.422 125.329 33.2367 126.354 33.2367C127.163 33.2367 127.682 32.7809 127.847 32.1201L127.858 32.0745H128.832L128.827 32.1144C128.667 33.2424 127.693 34.1139 126.354 34.1139ZM132.899 34.1139C131.253 34.1139 130.153 32.9233 130.153 31.0378V31.0264C130.153 29.1408 131.258 27.9616 132.893 27.9616C134.528 27.9616 135.639 29.1351 135.639 31.0264V31.0378C135.639 32.929 134.534 34.1139 132.899 34.1139ZM132.905 33.2367C133.947 33.2367 134.625 32.4277 134.625 31.0378V31.0264C134.625 29.6364 133.941 28.8389 132.893 28.8389C131.862 28.8389 131.167 29.6421 131.167 31.0264V31.0378C131.167 32.4334 131.856 33.2367 132.905 33.2367ZM137.342 34V28.0755H138.333V28.9414H138.356C138.623 28.3547 139.216 27.9616 139.979 27.9616C140.788 27.9616 141.386 28.3774 141.643 29.1009H141.665C141.996 28.3888 142.691 27.9616 143.522 27.9616C144.696 27.9616 145.454 28.7306 145.454 29.9098V34H144.462V30.1377C144.462 29.3231 144.012 28.8389 143.232 28.8389C142.446 28.8389 141.893 29.4256 141.893 30.2345V34H140.902V30.0295C140.902 29.3117 140.423 28.8389 139.689 28.8389C138.902 28.8389 138.333 29.4598 138.333 30.2858V34H137.342ZM147.418 34V28.0755H148.409V28.9414H148.432C148.7 28.3547 149.292 27.9616 150.056 27.9616C150.865 27.9616 151.463 28.3774 151.719 29.1009H151.742C152.072 28.3888 152.767 27.9616 153.599 27.9616C154.773 27.9616 155.53 28.7306 155.53 29.9098V34H154.539V30.1377C154.539 29.3231 154.089 28.8389 153.309 28.8389C152.522 28.8389 151.97 29.4256 151.97 30.2345V34H150.979V30.0295C150.979 29.3117 150.5 28.8389 149.765 28.8389C148.979 28.8389 148.409 29.4598 148.409 30.2858V34H147.418ZM159.517 34.1139C158.218 34.1139 157.466 33.2708 157.466 31.9207V28.0755H158.458V31.7441C158.458 32.7069 158.908 33.2367 159.819 33.2367C160.753 33.2367 161.363 32.5701 161.363 31.5618V28.0755H162.354V34H161.363V33.1569H161.34C161.021 33.7095 160.417 34.1139 159.517 34.1139ZM164.347 34V28.0755H165.338V28.9186H165.361C165.68 28.366 166.284 27.9616 167.184 27.9616C168.483 27.9616 169.235 28.8047 169.235 30.1548V34H168.244V30.3314C168.244 29.3687 167.794 28.8389 166.882 28.8389C165.948 28.8389 165.338 29.5054 165.338 30.5137V34H164.347ZM171.758 27.0729C171.416 27.0729 171.137 26.7938 171.137 26.452C171.137 26.1045 171.416 25.8311 171.758 25.8311C172.105 25.8311 172.379 26.1045 172.379 26.452C172.379 26.7938 172.105 27.0729 171.758 27.0729ZM171.262 34V28.0755H172.253V34H171.262ZM176.759 34.1139C175.078 34.1139 174.013 32.9176 174.013 31.0321V31.0264C174.013 29.1579 175.101 27.9616 176.747 27.9616C178.223 27.9616 179.094 28.9414 179.22 29.9554L179.225 30.001H178.257L178.246 29.9554C178.097 29.363 177.619 28.8389 176.747 28.8389C175.716 28.8389 175.027 29.6934 175.027 31.0378V31.0435C175.027 32.422 175.733 33.2367 176.759 33.2367C177.568 33.2367 178.086 32.7809 178.251 32.1201L178.263 32.0745H179.237L179.231 32.1144C179.072 33.2424 178.097 34.1139 176.759 34.1139ZM182.58 34.1139C181.401 34.1139 180.609 33.4019 180.609 32.3252V32.3138C180.609 31.3055 181.395 30.6732 182.757 30.5934L184.454 30.4966V30.001C184.454 29.2775 183.981 28.8389 183.155 28.8389C182.392 28.8389 181.914 29.2034 181.8 29.7332L181.788 29.7845H180.831L180.837 29.7218C180.922 28.7477 181.771 27.9616 183.167 27.9616C184.568 27.9616 185.445 28.7192 185.445 29.9041V34H184.454V33.0373H184.431C184.084 33.6867 183.372 34.1139 182.58 34.1139ZM181.623 32.3252C181.623 32.8949 182.09 33.2537 182.802 33.2537C183.736 33.2537 184.454 32.61 184.454 31.7498V31.2656L182.871 31.3625C182.079 31.408 181.623 31.7612 181.623 32.3138V32.3252ZM189.33 34.1139C188.242 34.1139 187.706 33.624 187.706 32.4904V28.8958H186.84V28.0755H187.706V26.4748H188.732V28.0755H189.86V28.8958H188.732V32.4847C188.732 33.117 189.011 33.2936 189.541 33.2936C189.66 33.2936 189.774 33.2765 189.86 33.2708V34.0741C189.734 34.0911 189.524 34.1139 189.33 34.1139ZM192.183 27.0729C191.841 27.0729 191.562 26.7938 191.562 26.452C191.562 26.1045 191.841 25.8311 192.183 25.8311C192.531 25.8311 192.804 26.1045 192.804 26.452C192.804 26.7938 192.531 27.0729 192.183 27.0729ZM191.688 34V28.0755H192.679V34H191.688ZM197.184 34.1139C195.538 34.1139 194.438 32.9233 194.438 31.0378V31.0264C194.438 29.1408 195.543 27.9616 197.178 27.9616C198.813 27.9616 199.924 29.1351 199.924 31.0264V31.0378C199.924 32.929 198.819 34.1139 197.184 34.1139ZM197.19 33.2367C198.232 33.2367 198.91 32.4277 198.91 31.0378V31.0264C198.91 29.6364 198.227 28.8389 197.178 28.8389C196.147 28.8389 195.452 29.6421 195.452 31.0264V31.0378C195.452 32.4334 196.142 33.2367 197.19 33.2367ZM201.627 34V28.0755H202.618V28.9186H202.641C202.96 28.366 203.564 27.9616 204.464 27.9616C205.763 27.9616 206.514 28.8047 206.514 30.1548V34H205.523V30.3314C205.523 29.3687 205.073 28.8389 204.162 28.8389C203.228 28.8389 202.618 29.5054 202.618 30.5137V34H201.627ZM210.581 34.1139C209.185 34.1139 208.342 33.4019 208.223 32.3423L208.217 32.291H209.208L209.22 32.348C209.339 32.9404 209.778 33.2879 210.587 33.2879C211.39 33.2879 211.869 32.9518 211.869 32.4163V32.4106C211.869 31.9834 211.646 31.7441 210.974 31.5789L210.034 31.3511C208.918 31.0833 208.377 30.5649 208.377 29.7104V29.7048C208.377 28.6851 209.271 27.9616 210.553 27.9616C211.852 27.9616 212.678 28.7192 212.752 29.7104L212.757 29.7845H211.812L211.806 29.7446C211.726 29.1693 211.288 28.7876 210.553 28.7876C209.835 28.7876 209.391 29.1351 209.391 29.6592V29.6649C209.391 30.0693 209.658 30.3485 210.313 30.508L211.253 30.7358C212.45 31.0264 212.883 31.4992 212.883 32.3423V32.348C212.883 33.3848 211.903 34.1139 210.581 34.1139ZM217.86 34V25.7798H218.885V34H217.86ZM221.027 34V28.0755H222.018V28.9186H222.041C222.36 28.366 222.964 27.9616 223.864 27.9616C225.162 27.9616 225.914 28.8047 225.914 30.1548V34H224.923V30.3314C224.923 29.3687 224.473 28.8389 223.562 28.8389C222.627 28.8389 222.018 29.5054 222.018 30.5137V34H221.027ZM229.981 34.1139C228.585 34.1139 227.742 33.4019 227.623 32.3423L227.617 32.291H228.608L228.62 32.348C228.739 32.9404 229.178 33.2879 229.987 33.2879C230.79 33.2879 231.269 32.9518 231.269 32.4163V32.4106C231.269 31.9834 231.046 31.7441 230.374 31.5789L229.434 31.3511C228.318 31.0833 227.777 30.5649 227.777 29.7104V29.7048C227.777 28.6851 228.671 27.9616 229.953 27.9616C231.251 27.9616 232.077 28.7192 232.152 29.7104L232.157 29.7845H231.212L231.206 29.7446C231.126 29.1693 230.687 28.7876 229.953 28.7876C229.235 28.7876 228.791 29.1351 228.791 29.6592V29.6649C228.791 30.0693 229.058 30.3485 229.713 30.508L230.653 30.7358C231.85 31.0264 232.283 31.4992 232.283 32.3423V32.348C232.283 33.3848 231.303 34.1139 229.981 34.1139ZM235.939 34.1139C234.851 34.1139 234.316 33.624 234.316 32.4904V28.8958H233.45V28.0755H234.316V26.4748H235.341V28.0755H236.469V28.8958H235.341V32.4847C235.341 33.117 235.62 33.2936 236.15 33.2936C236.269 33.2936 236.383 33.2765 236.469 33.2708V34.0741C236.344 34.0911 236.133 34.1139 235.939 34.1139ZM238.792 27.0729C238.451 27.0729 238.171 26.7938 238.171 26.452C238.171 26.1045 238.451 25.8311 238.792 25.8311C239.14 25.8311 239.413 26.1045 239.413 26.452C239.413 26.7938 239.14 27.0729 238.792 27.0729ZM238.297 34V28.0755H239.288V34H238.297ZM243.264 34.1139C242.176 34.1139 241.64 33.624 241.64 32.4904V28.8958H240.774V28.0755H241.64V26.4748H242.665V28.0755H243.793V28.8958H242.665V32.4847C242.665 33.117 242.945 33.2936 243.474 33.2936C243.594 33.2936 243.708 33.2765 243.793 33.2708V34.0741C243.668 34.0911 243.457 34.1139 243.264 34.1139ZM247.581 34.1139C246.282 34.1139 245.53 33.2708 245.53 31.9207V28.0755H246.521V31.7441C246.521 32.7069 246.971 33.2367 247.883 33.2367C248.817 33.2367 249.427 32.5701 249.427 31.5618V28.0755H250.418V34H249.427V33.1569H249.404C249.085 33.7095 248.481 34.1139 247.581 34.1139ZM254.336 34.1139C253.248 34.1139 252.713 33.624 252.713 32.4904V28.8958H251.847V28.0755H252.713V26.4748H253.738V28.0755H254.866V28.8958H253.738V32.4847C253.738 33.117 254.017 33.2936 254.547 33.2936C254.667 33.2936 254.781 33.2765 254.866 33.2708V34.0741C254.741 34.0911 254.53 34.1139 254.336 34.1139ZM258.899 34.1139C257.195 34.1139 256.17 32.9233 256.17 31.0605V31.0548C256.17 29.2205 257.218 27.9616 258.836 27.9616C260.454 27.9616 261.439 29.1636 261.439 30.9409V31.3055H257.173C257.195 32.5246 257.868 33.2367 258.922 33.2367C259.673 33.2367 260.203 32.8607 260.374 32.3537L260.391 32.3024H261.365L261.354 32.3594C261.16 33.3392 260.192 34.1139 258.899 34.1139ZM258.83 28.8389C257.97 28.8389 257.298 29.4256 257.19 30.5308H260.431C260.334 29.38 259.696 28.8389 258.83 28.8389ZM268.69 34.1139C267.044 34.1139 265.944 32.9233 265.944 31.0378V31.0264C265.944 29.1408 267.049 27.9616 268.684 27.9616C270.319 27.9616 271.43 29.1351 271.43 31.0264V31.0378C271.43 32.929 270.325 34.1139 268.69 34.1139ZM268.696 33.2367C269.738 33.2367 270.416 32.4277 270.416 31.0378V31.0264C270.416 29.6364 269.732 28.8389 268.684 28.8389C267.653 28.8389 266.958 29.6421 266.958 31.0264V31.0378C266.958 32.4334 267.647 33.2367 268.696 33.2367ZM273.452 34V28.8958H272.626V28.0755H273.452V27.3464C273.452 26.207 273.981 25.6659 275.075 25.6659C275.297 25.6659 275.531 25.6829 275.679 25.7057V26.509C275.559 26.4919 275.405 26.4862 275.252 26.4862C274.705 26.4862 274.431 26.7653 274.431 27.352V28.0755H275.65V28.8958H274.443V34H273.452ZM282.701 34V26.7026H280.109V25.7798H286.319V26.7026H283.727V34H282.701ZM288.847 34.1139C287.144 34.1139 286.119 32.9233 286.119 31.0605V31.0548C286.119 29.2205 287.167 27.9616 288.785 27.9616C290.403 27.9616 291.388 29.1636 291.388 30.9409V31.3055H287.121C287.144 32.5246 287.816 33.2367 288.87 33.2367C289.622 33.2367 290.152 32.8607 290.323 32.3537L290.34 32.3024H291.314L291.303 32.3594C291.109 33.3392 290.141 34.1139 288.847 34.1139ZM288.779 28.8389C287.919 28.8389 287.247 29.4256 287.138 30.5308H290.38C290.283 29.38 289.645 28.8389 288.779 28.8389ZM295.546 34.1139C293.865 34.1139 292.8 32.9176 292.8 31.0321V31.0264C292.8 29.1579 293.888 27.9616 295.535 27.9616C297.01 27.9616 297.882 28.9414 298.007 29.9554L298.013 30.001H297.044L297.033 29.9554C296.885 29.363 296.406 28.8389 295.535 28.8389C294.503 28.8389 293.814 29.6934 293.814 31.0378V31.0435C293.814 32.422 294.521 33.2367 295.546 33.2367C296.355 33.2367 296.873 32.7809 297.038 32.1201L297.05 32.0745H298.024L298.018 32.1144C297.859 33.2424 296.885 34.1139 295.546 34.1139ZM299.687 34V25.7798H300.678V29.0212H300.701C301.02 28.3547 301.663 27.9616 302.546 27.9616C303.805 27.9616 304.666 28.9357 304.666 30.3713V34H303.674V30.5422C303.674 29.4712 303.127 28.8389 302.205 28.8389C301.287 28.8389 300.678 29.5339 300.678 30.5422V34H299.687ZM306.625 34V28.0755H307.616V28.9186H307.639C307.958 28.366 308.561 27.9616 309.461 27.9616C310.76 27.9616 311.512 28.8047 311.512 30.1548V34H310.521V30.3314C310.521 29.3687 310.071 28.8389 309.16 28.8389C308.225 28.8389 307.616 29.5054 307.616 30.5137V34H306.625ZM315.932 34.1139C314.286 34.1139 313.186 32.9233 313.186 31.0378V31.0264C313.186 29.1408 314.291 27.9616 315.926 27.9616C317.561 27.9616 318.672 29.1351 318.672 31.0264V31.0378C318.672 32.929 317.567 34.1139 315.932 34.1139ZM315.938 33.2367C316.98 33.2367 317.658 32.4277 317.658 31.0378V31.0264C317.658 29.6364 316.975 28.8389 315.926 28.8389C314.895 28.8389 314.2 29.6421 314.2 31.0264V31.0378C314.2 32.4334 314.89 33.2367 315.938 33.2367ZM320.426 34V25.7798H321.417V34H320.426ZM325.911 34.1139C324.265 34.1139 323.165 32.9233 323.165 31.0378V31.0264C323.165 29.1408 324.271 27.9616 325.905 27.9616C327.54 27.9616 328.651 29.1351 328.651 31.0264V31.0378C328.651 32.929 327.546 34.1139 325.911 34.1139ZM325.917 33.2367C326.959 33.2367 327.637 32.4277 327.637 31.0378V31.0264C327.637 29.6364 326.954 28.8389 325.905 28.8389C324.874 28.8389 324.179 29.6421 324.179 31.0264V31.0378C324.179 32.4334 324.869 33.2367 325.917 33.2367ZM332.86 36.1077C331.396 36.1077 330.473 35.4185 330.28 34.5412L330.268 34.4899H331.265L331.288 34.5412C331.476 34.9684 332.04 35.2305 332.849 35.2305C333.891 35.2305 334.484 34.6551 334.484 33.738V32.9803H334.461C334.108 33.6354 333.424 34.057 332.576 34.057C331.083 34.057 330.063 32.855 330.063 31.0036V30.9979C330.063 29.1579 331.094 27.9616 332.598 27.9616C333.436 27.9616 334.097 28.4173 334.461 29.0781H334.484V28.0755H335.475V33.8348C335.475 35.2077 334.467 36.1077 332.86 36.1077ZM332.792 33.1797C333.8 33.1797 334.484 32.3195 334.484 31.0036V30.9979C334.484 29.6934 333.795 28.8389 332.792 28.8389C331.738 28.8389 331.077 29.682 331.077 30.9979V31.0036C331.077 32.348 331.738 33.1797 332.792 33.1797ZM338.027 35.9938C337.833 35.9938 337.622 35.971 337.497 35.9482V35.1393C337.582 35.1564 337.696 35.1735 337.816 35.1735C338.442 35.1735 338.79 35.014 339.029 34.3418L339.149 34.0057L336.95 28.0755H338.009L339.644 33.0088H339.667L341.308 28.0755H342.35L340.037 34.3703C339.616 35.5039 339.097 35.9938 338.027 35.9938Z" fill="white"/>
<defs>
<clipPath id="clip0_1234_17334">
<rect width="32.8358" height="40" fill="white" transform="translate(0.0666504)"/>
</clipPath>
</defs>
</svg>
