<svg width="347" height="40" viewBox="0 0 347 40" fill="none" xmlns="http://www.w3.org/2000/svg">
<g clip-path="url(#clip0_1234_17362)">
<path d="M20.1675 0.616731C22.0416 0.162133 24.0552 0.433398 25.7854 1.26156C26.8115 1.84892 27.5191 2.87248 27.896 3.97133C28.4556 5.59144 28.4782 7.338 28.3446 9.0288C28.1174 11.4897 27.5272 13.911 26.6838 16.2334C26.3872 17.0219 26.0727 17.8093 25.6484 18.5403C25.5634 18.6874 25.4709 18.8317 25.3507 18.9535C25.7767 17.8443 26.1045 16.7001 26.3791 15.5455C26.7589 13.8972 27.0098 12.211 26.9913 10.5167C26.9797 8.89317 26.7086 7.22708 25.9103 5.79144C25.0842 4.29144 23.606 3.14259 21.9179 2.7811C20.5056 2.47708 19.0303 2.76041 17.7181 3.31501C15.9572 4.06098 14.4085 5.22305 13.0089 6.50696C12.2938 7.16903 11.6232 7.87765 10.9885 8.61616C11.9371 6.94547 13.1164 5.40121 14.4767 4.03972C16.0566 2.4719 17.9667 1.1334 20.1675 0.616731Z" fill="#DE221A"/>
<path d="M14.9744 2.896C12.5528 5.2322 10.5075 7.94485 8.85005 10.8638C7.8933 12.569 7.0753 14.3529 6.44807 16.204C5.85436 17.9242 5.44391 19.7046 5.18666 21.5046C4.9612 23.0402 4.86004 24.5977 4.95774 26.1483C5.06873 27.7029 5.39362 29.277 6.17 30.6466C6.77122 31.6937 7.67363 32.6494 8.85525 33.0247C8.79166 33.0931 8.69165 33.0966 8.60725 33.1247C7.50771 33.4213 6.32088 33.5138 5.21441 33.2006C4.36056 32.9627 3.59806 32.423 3.09627 31.696C2.43377 30.7471 2.16958 29.5868 2.06726 28.4529C1.91695 26.4834 2.19733 24.5104 2.60315 22.5862C2.88758 21.2529 3.24484 19.9362 3.64488 18.6334C3.73795 18.3448 3.81137 18.0483 3.93566 17.7707C4.72592 16.0017 5.637 14.2874 6.63017 12.623C7.92047 10.4776 9.36513 8.41784 11.0272 6.5391C12.2169 5.19887 13.5211 3.95117 14.9744 2.896Z" fill="#DE221A"/>
<path d="M25.5674 19.2449C27.4526 19.2317 29.3384 19.242 31.2241 19.2397C31.2247 19.6932 31.2241 20.1461 31.2247 20.5995C30.5217 20.603 29.8182 20.5966 29.1152 20.603C29.1193 22.8277 29.1141 25.0524 29.1175 27.2777C28.6406 27.2794 28.1637 27.2713 27.6873 27.2817C27.6688 25.0553 27.6827 22.8277 27.6798 20.6007C26.9757 20.5978 26.2716 20.6047 25.5674 20.5972C25.5738 20.1466 25.5738 19.6955 25.5674 19.2449Z" fill="#DE221A"/>
<path d="M7.25338 19.3408C8.16966 19.3425 9.08652 19.3414 10.0034 19.342C10.5248 19.3471 11.0486 19.3517 11.5665 19.4219C12.2071 19.5155 12.7696 19.9443 13.0771 20.5035C13.3089 20.9276 13.3777 21.4201 13.3667 21.8971C13.3529 22.3523 13.2505 22.8173 12.9898 23.1983C12.6337 23.7644 12.0001 24.1385 11.3365 24.2115C10.5173 24.3115 9.69063 24.2793 8.868 24.2822C8.86742 25.2782 8.86048 26.2747 8.87147 27.2713C8.33153 27.2828 7.79101 27.277 7.25049 27.2742C7.25858 24.6299 7.2528 21.9851 7.25338 19.3408ZM8.86395 20.6897C8.86858 21.4374 8.86684 22.1851 8.86511 22.9328C9.47153 22.9431 10.0814 22.9529 10.6861 22.8885C10.9821 22.8575 11.2758 22.7299 11.4671 22.4971C11.7417 22.1638 11.7804 21.6673 11.5874 21.2862C11.4064 20.942 11.0226 20.7402 10.6404 20.7173C10.0496 20.6782 9.45592 20.6707 8.86395 20.6897Z" fill="#DE221A"/>
<path d="M13.5956 19.3489C15.482 19.3369 17.3694 19.3449 19.2564 19.3449C19.2558 19.7978 19.2564 20.2501 19.2558 20.703C18.5505 20.7122 17.8446 20.6909 17.1399 20.7139C17.155 22.9363 17.1446 25.1599 17.1451 27.3828C16.6659 27.3771 16.1872 27.3817 15.7086 27.3805C15.7109 25.1553 15.708 22.93 15.7103 20.7047C15.0068 20.703 14.3032 20.7053 13.5997 20.7041C13.5997 20.2518 13.6072 19.8001 13.5956 19.3489Z" fill="#DE221A"/>
<path d="M21.5422 22.3489C22.0879 22.8885 22.633 23.4288 23.1741 23.9736C23.1684 25.0747 23.1736 26.1765 23.1718 27.2776C22.6278 27.3132 22.0838 27.3437 21.5399 27.3811C21.5427 25.7035 21.5387 24.0265 21.5422 22.3489Z" fill="#DE221A"/>
<path d="M19.7587 25.4501C20.3114 24.68 20.8404 23.8622 21.0884 22.9392C21.1161 24.2794 21.0832 25.6197 21.1005 26.9605C21.0993 27.0317 21.0537 27.0909 21.0242 27.1536C20.0247 29.0214 18.4771 30.5375 16.7972 31.807C15.645 32.672 14.4085 33.4225 13.1297 34.0881C12.3111 34.5185 11.4498 34.8754 10.5491 35.095C9.39118 35.3794 8.16214 35.4283 6.99959 35.1427C5.49134 34.7766 4.12993 33.8725 3.18127 32.6553C3.89349 33.38 4.88839 33.7748 5.89023 33.884C7.21291 34.0346 8.54542 33.7398 9.77734 33.2708C11.6972 32.5306 13.4113 31.3605 15.0212 30.1013C16.7648 28.7323 18.432 27.2317 19.7587 25.4501Z" fill="#DE221A"/>
<path d="M0.663666 36.0432C5.2416 36.0496 9.82012 36.0455 14.3981 36.0455C15.0606 36.034 15.7913 36.0369 16.348 36.4461C16.8856 36.0197 17.614 36.0352 18.2655 36.0415C22.759 36.0438 27.252 36.0438 31.745 36.0421C31.7444 36.2438 31.7496 36.4461 31.7409 36.649C27.1352 36.6496 22.5295 36.6513 17.9239 36.6467C17.5521 36.6507 17.1573 36.6691 16.8272 36.8559C16.7312 36.9042 16.6752 36.9967 16.633 37.0909C16.4364 37.0984 16.2404 37.1082 16.0445 37.122C16.0306 36.9214 15.8335 36.826 15.6641 36.7725C15.123 36.5984 14.5472 36.6628 13.9888 36.6536C9.54726 36.6559 5.10575 36.6484 0.664244 36.657C0.659619 36.4524 0.660776 36.2478 0.663666 36.0432Z" fill="#DE221A"/>
<path d="M0.660767 37.0933C5.35664 37.0956 10.0519 37.0938 14.7472 37.0938C15.245 37.1266 15.7254 37.368 16.0323 37.7617C16.0335 38.3915 16.0329 39.022 16.0323 39.6519C15.7254 39.1025 15.0455 38.9237 14.4553 38.9232C9.85768 38.9369 5.26009 38.9611 0.663079 38.9904C0.65961 38.3582 0.663657 37.7254 0.660767 37.0933Z" fill="#DE221A"/>
<path d="M16.3711 37.7673C16.6798 37.3599 17.1775 37.1196 17.6863 37.0921C22.3694 37.0944 27.0531 37.0984 31.7363 37.0903C31.7583 37.7219 31.7392 38.3553 31.7455 38.9875C27.1364 38.965 22.5272 38.934 17.9175 38.9237C17.3377 38.9288 16.6815 39.1122 16.3734 39.6438C16.3711 39.0185 16.3769 38.3926 16.3711 37.7673Z" fill="#DE221A"/>
<path d="M23.9944 15.2568C24.0135 15.1838 24.0551 15.1195 24.0921 15.054C23.9135 16.4563 23.6869 17.8534 23.4932 19.2545C23.1151 19.4407 22.759 19.6718 22.3717 19.8396C22.807 18.5919 23.2683 17.3534 23.714 16.1091C23.8106 15.8258 23.936 15.5517 23.9944 15.2568Z" fill="#B89C0E"/>
<path d="M19.8275 19.2627C20.423 19.5248 21.0091 19.8081 21.6034 20.0725C21.6826 20.1052 21.7555 20.1518 21.8219 20.2064C21.4115 20.3587 20.9993 20.5064 20.5889 20.6592C20.3333 20.1949 20.0651 19.7363 19.8275 19.2627Z" fill="#B89C0E"/>
<path d="M18.9569 23.5005C19.9807 22.5125 20.9918 21.5108 22.022 20.5298C22.3954 21.4556 22.7931 22.3735 23.136 23.3102C22.7064 22.8459 22.2989 22.3608 21.8867 21.8809C20.8704 22.462 19.8795 23.0901 18.8552 23.6562C18.8829 23.6005 18.9101 23.543 18.9569 23.5005Z" fill="#B89C0E"/>
<path d="M21.8081 19.2252C22.5371 17.9028 23.2481 16.5695 23.9944 15.2568C23.9361 15.5517 23.8106 15.8258 23.7141 16.1091C23.2684 17.3534 22.807 18.5919 22.3717 19.8396C22.7591 19.6718 23.1152 19.4407 23.4932 19.2545C24.0962 19.2344 24.7003 19.2534 25.3038 19.2292C25.3056 19.2448 25.3096 19.2752 25.3113 19.2907C25.2986 19.293 25.2738 19.2976 25.2611 19.3005C25.1501 19.3206 25.0402 19.343 24.9338 19.3798C24.0372 19.6942 23.1366 19.9965 22.2399 20.3103C22.5348 20.4821 22.8654 20.581 23.1724 20.7293C23.1678 21.6086 23.1793 22.4884 23.1666 23.3678C23.1585 23.3534 23.1435 23.3247 23.136 23.3103C22.7932 22.3735 22.3954 21.4557 22.022 20.5298C20.9918 21.5109 19.9807 22.5126 18.9569 23.5005C18.9101 23.543 18.8829 23.6005 18.8552 23.6563C18.8205 23.7206 18.7332 23.7321 18.6771 23.7724C19.3217 22.7396 19.9489 21.6953 20.5889 20.6591C20.9993 20.5063 21.4115 20.3586 21.822 20.2063C21.7555 20.1517 21.6826 20.1051 21.6034 20.0724C21.0092 19.808 20.423 19.5247 19.8275 19.2626L19.8056 19.2534C20.4727 19.2367 21.1404 19.2419 21.8081 19.2252Z" fill="#EFF003"/>
<path d="M24.9339 19.3798C25.0402 19.3431 25.1501 19.3207 25.2611 19.3005C24.5714 19.7862 23.8684 20.2534 23.1724 20.7293C22.8654 20.581 22.5348 20.4821 22.2399 20.3103C23.1366 19.9965 24.0372 19.6942 24.9339 19.3798Z" fill="#B89C0D"/>
</g>
<path d="M45.5975 16V6.84033H47.5145V10.5601H51.6405V6.84033H53.5575V16H51.6405V12.1406H47.5145V16H45.5975ZM59.4733 16.1587C56.7501 16.1587 55.0553 14.3369 55.0553 11.4233V11.4106C55.0553 8.49707 56.7628 6.68164 59.4733 6.68164C62.1901 6.68164 63.8912 8.50342 63.8912 11.4106V11.4233C63.8912 14.3369 62.1964 16.1587 59.4733 16.1587ZM59.4733 14.5337C60.9967 14.5337 61.9361 13.3213 61.9361 11.4233V11.4106C61.9361 9.5 60.9777 8.30664 59.4733 8.30664C57.9752 8.30664 57.0104 9.49365 57.0104 11.4106V11.4233C57.0104 13.3403 57.9689 14.5337 59.4733 14.5337ZM59.4733 18.7993C58.9147 18.7993 58.483 18.3613 58.483 17.8345C58.483 17.3076 58.9147 16.8696 59.4733 16.8696C60.0319 16.8696 60.4635 17.3076 60.4635 17.8345C60.4635 18.3613 60.0319 18.7993 59.4733 18.7993ZM69.4642 16.1587C66.7855 16.1587 65.1034 14.3687 65.1034 11.417V11.4106C65.1034 8.45898 66.7919 6.68164 69.4642 6.68164C71.6859 6.68164 73.2792 8.08447 73.4569 10.0269L73.4632 10.084H71.597L71.5716 9.97607C71.3558 8.9668 70.6068 8.30664 69.4642 8.30664C67.9979 8.30664 67.0585 9.4873 67.0585 11.4043V11.4106C67.0585 13.3403 67.9979 14.5337 69.4642 14.5337C70.5687 14.5337 71.3431 13.8989 71.5907 12.8135L71.6034 12.75H73.4696L73.4632 12.8198C73.2855 14.7686 71.6795 16.1587 69.4642 16.1587ZM80.2357 16L77.1698 6.84033H79.2899L81.3846 14.0386H81.4227L83.5111 6.84033H85.6375L82.5716 16H80.2357ZM86.837 16V6.84033H88.754V16H86.837ZM91.3626 6.08496L92.8226 3.99023H94.3079L95.7869 6.08496H94.4666L93.5589 4.81543L92.6829 6.08496H91.3626ZM90.5374 16V6.84033H96.6058V8.4209H92.4544V10.6172H96.3709V12.1152H92.4544V14.4194H96.6058V16H90.5374ZM93.5716 18.7993C93.0194 18.7993 92.5814 18.3613 92.5814 17.8345C92.5814 17.3076 93.0194 16.8696 93.5716 16.8696C94.1302 16.8696 94.5618 17.3076 94.5618 17.8345C94.5618 18.3613 94.1302 18.7993 93.5716 18.7993ZM98.2496 16V6.84033H99.9253L104.064 12.7944H104.102V6.84033H106.013V16H104.35L100.198 10.0015H100.16V16H98.2496ZM114.715 16.1587C112.036 16.1587 110.354 14.3687 110.354 11.417V11.4106C110.354 8.45898 112.043 6.68164 114.715 6.68164C116.937 6.68164 118.53 8.08447 118.708 10.0269L118.714 10.084H116.848L116.822 9.97607C116.606 8.9668 115.857 8.30664 114.715 8.30664C113.249 8.30664 112.309 9.4873 112.309 11.4043V11.4106C112.309 13.3403 113.249 14.5337 114.715 14.5337C115.819 14.5337 116.594 13.8989 116.841 12.8135L116.854 12.75H118.72L118.714 12.8198C118.536 14.7686 116.93 16.1587 114.715 16.1587ZM122.084 6.08496L123.551 3.99023H125.036L126.509 6.08496H125.188L124.281 4.81543L123.405 6.08496H122.084ZM124.3 16.1587C121.576 16.1587 119.882 14.3369 119.882 11.4233V11.4106C119.882 8.49707 121.589 6.68164 124.3 6.68164C127.016 6.68164 128.718 8.50342 128.718 11.4106V11.4233C128.718 14.3369 127.023 16.1587 124.3 16.1587ZM124.3 14.5337C125.823 14.5337 126.762 13.3213 126.762 11.4233V11.4106C126.762 9.5 125.804 8.30664 124.3 8.30664C122.802 8.30664 121.837 9.49365 121.837 11.4106V11.4233C121.837 13.3403 122.795 14.5337 124.3 14.5337ZM130.215 16V6.84033H131.891L136.03 12.7944H136.068V6.84033H137.979V16H136.315L132.164 10.0015H132.126V16H130.215ZM143.894 16.1587C141.158 16.1587 139.483 14.375 139.483 11.3916V11.3853C139.483 8.45264 141.165 6.68164 143.85 6.68164C146.052 6.68164 147.551 7.96387 147.855 9.68408L147.874 9.77295H145.951L145.926 9.70947C145.621 8.8208 144.891 8.30664 143.856 8.30664C142.345 8.30664 141.438 9.42383 141.438 11.3662V11.3726C141.438 13.3594 142.403 14.5337 143.926 14.5337C145.177 14.5337 146.033 13.791 146.084 12.6611L146.091 12.5278H143.996V11.0996H147.957V12.1533C147.957 14.6479 146.446 16.1587 143.894 16.1587ZM152.323 16V6.84033H153.999L158.138 12.7944H158.176V6.84033H160.087V16H158.424L154.272 10.0015H154.234V16H152.323ZM166.002 16.1587C163.267 16.1587 161.591 14.375 161.591 11.3916V11.3853C161.591 8.45264 163.273 6.68164 165.958 6.68164C168.161 6.68164 169.659 7.96387 169.963 9.68408L169.982 9.77295H168.059L168.034 9.70947C167.729 8.8208 166.999 8.30664 165.964 8.30664C164.454 8.30664 163.546 9.42383 163.546 11.3662V11.3726C163.546 13.3594 164.511 14.5337 166.034 14.5337C167.285 14.5337 168.142 13.791 168.192 12.6611L168.199 12.5278H166.104V11.0996H170.065V12.1533C170.065 14.6479 168.554 16.1587 166.002 16.1587ZM171.594 16V6.84033H173.511V10.5601H177.637V6.84033H179.554V16H177.637V12.1406H173.511V16H171.594ZM182.163 6.08496L183.623 3.99023H185.108L186.587 6.08496H185.267L184.359 4.81543L183.483 6.08496H182.163ZM181.338 16V6.84033H187.406V8.4209H183.255V10.6172H187.171V12.1152H183.255V14.4194H187.406V16H181.338ZM184.372 18.7993C183.82 18.7993 183.382 18.3613 183.382 17.8345C183.382 17.3076 183.82 16.8696 184.372 16.8696C184.931 16.8696 185.362 17.3076 185.362 17.8345C185.362 18.3613 184.931 18.7993 184.372 18.7993ZM191.887 16V6.84033H195.873C197.6 6.84033 198.685 7.729 198.685 9.13818V9.15088C198.685 10.1538 197.924 11.0107 196.914 11.144V11.1821C198.19 11.2773 199.111 12.1787 199.111 13.3784V13.3911C199.111 14.9971 197.898 16 195.943 16H191.887ZM195.378 8.26221H193.804V10.668H195.143C196.223 10.668 196.8 10.2173 196.8 9.42383V9.41113C196.8 8.68115 196.273 8.26221 195.378 8.26221ZM195.372 11.9692H193.804V14.5718H195.455C196.553 14.5718 197.156 14.1211 197.156 13.2705V13.2578C197.156 12.4199 196.546 11.9692 195.372 11.9692ZM204.303 16.1587C201.954 16.1587 200.463 14.8003 200.463 12.7627V6.84033H202.38V12.5913C202.38 13.7783 203.071 14.5337 204.303 14.5337C205.534 14.5337 206.22 13.7783 206.22 12.5913V6.84033C207.616 6.66895 207.927 6.26904 207.915 4.92969H209.343C209.343 6.28809 209.032 6.99268 208.137 7.39258V12.7627C208.137 14.7939 206.664 16.1587 204.303 16.1587ZM214.084 16.1587C211.736 16.1587 210.244 14.8003 210.244 12.7627V6.84033H212.161V12.5913C212.161 13.7783 212.853 14.5337 214.084 14.5337C215.316 14.5337 216.001 13.7783 216.001 12.5913V6.84033H217.918V12.7627C217.918 14.7939 216.446 16.1587 214.084 16.1587ZM226.62 16.1587C223.942 16.1587 222.26 14.3687 222.26 11.417V11.4106C222.26 8.45898 223.948 6.68164 226.62 6.68164C228.842 6.68164 230.435 8.08447 230.613 10.0269L230.62 10.084H228.753L228.728 9.97607C228.512 8.9668 227.763 8.30664 226.62 8.30664C225.154 8.30664 224.215 9.4873 224.215 11.4043V11.4106C224.215 13.3403 225.154 14.5337 226.62 14.5337C227.725 14.5337 228.499 13.8989 228.747 12.8135L228.76 12.75H230.626L230.62 12.8198C230.442 14.7686 228.836 16.1587 226.62 16.1587ZM232.073 16V6.84033H233.99V10.5601H238.116V6.84033H240.033V16H238.116V12.1406H233.99V16H232.073ZM243.251 6.08496H242.019L243.124 3.99023H244.749L243.251 6.08496ZM241.816 16V6.84033H243.733V16H241.816ZM245.517 16V6.84033H247.192L251.331 12.7944H251.369V6.84033H253.28V16H251.617L247.465 10.0015H247.427V16H245.517ZM255.07 16V6.84033H256.987V10.5601H261.113V6.84033H263.03V16H261.113V12.1406H256.987V16H255.07ZM270.132 16L267.066 6.84033H269.186L271.281 14.0386H271.319L273.408 6.84033H275.534L272.468 16H270.132ZM276.733 16V6.84033H278.65V16H276.733ZM284.268 4.87891C283.97 4.87891 283.697 4.80908 283.43 4.66309L283.271 4.56787C283.1 4.47266 282.986 4.42822 282.84 4.42822C282.63 4.42822 282.541 4.58057 282.541 4.85986V4.87891H281.608V4.82178C281.608 4.04102 282.059 3.62207 282.668 3.62207C282.954 3.62207 283.233 3.69824 283.493 3.85059L283.659 3.93945C283.83 4.04102 283.944 4.0791 284.103 4.0791C284.306 4.0791 284.401 3.92676 284.401 3.64746V3.62207H285.328V3.6792C285.328 4.46631 284.871 4.87891 284.268 4.87891ZM282.852 5.13916H284.077L285.449 6.42139H284.179L283.462 5.74854L282.763 6.42139H281.494L282.852 5.13916ZM280.434 16V6.84033H286.502V8.4209H282.351V10.6172H286.267V12.1152H282.351V14.4194H286.502V16H280.434ZM288.146 16V6.84033H289.822L293.961 12.7944H293.999V6.84033H295.909V16H294.246L290.095 10.0015H290.057V16H288.146ZM302.726 16V8.4209H300.079V6.84033H307.296V8.4209H304.643V16H302.726ZM308.616 16V6.84033H310.533V10.5601H314.659V6.84033H316.576V16H314.659V12.1406H310.533V16H308.616ZM320.277 6.08496L321.743 3.99023H323.229L324.701 6.08496H323.381L322.473 4.81543L321.597 6.08496H320.277ZM322.492 16.1587C319.769 16.1587 318.074 14.3369 318.074 11.4233V11.4106C318.074 8.49707 319.782 6.68164 322.492 6.68164C325.209 6.68164 326.91 8.50342 326.91 11.4106V11.4233C326.91 14.3369 325.215 16.1587 322.492 16.1587ZM322.492 14.5337C324.016 14.5337 324.955 13.3213 324.955 11.4233V11.4106C324.955 9.5 323.997 8.30664 322.492 8.30664C320.994 8.30664 320.029 9.49365 320.029 11.4106V11.4233C320.029 13.3403 320.988 14.5337 322.492 14.5337ZM328.408 16V6.84033H330.084L334.222 12.7944H334.26V6.84033H336.171V16H334.508L330.357 10.0015H330.319V16H328.408ZM342.087 16.1587C339.351 16.1587 337.675 14.375 337.675 11.3916V11.3853C337.675 8.45264 339.357 6.68164 342.042 6.68164C344.245 6.68164 345.743 7.96387 346.048 9.68408L346.067 9.77295H344.144L344.118 9.70947C343.813 8.8208 343.083 8.30664 342.049 8.30664C340.538 8.30664 339.63 9.42383 339.63 11.3662V11.3726C339.63 13.3594 340.595 14.5337 342.119 14.5337C343.369 14.5337 344.226 13.791 344.277 12.6611L344.283 12.5278H342.188V11.0996H346.149V12.1533C346.149 14.6479 344.639 16.1587 342.087 16.1587Z" fill="#051A53"/>
<path d="M45.6151 34V25.5449H48.7616C50.4198 25.5449 51.5682 26.6582 51.5682 28.3164V28.3281C51.5682 29.9805 50.4198 31.1113 48.7616 31.1113H46.9276V34H45.6151ZM48.4335 26.6523H46.9276V30.0098H48.4335C49.576 30.0098 50.2323 29.3945 50.2323 28.334V28.3223C50.2323 27.2676 49.576 26.6523 48.4335 26.6523ZM55.3632 34.123C53.5937 34.123 52.4394 32.8984 52.4394 30.918V30.9062C52.4394 28.9375 53.6054 27.7188 55.3574 27.7188C57.1152 27.7188 58.2871 28.9316 58.2871 30.9062V30.918C58.2871 32.9043 57.1269 34.123 55.3632 34.123ZM55.3691 33.0625C56.3593 33.0625 56.9921 32.2773 56.9921 30.918V30.9062C56.9921 29.5586 56.3476 28.7793 55.3574 28.7793C54.3847 28.7793 53.7343 29.5586 53.7343 30.9062V30.918C53.7343 32.2832 54.3789 33.0625 55.3691 33.0625ZM61.9942 34.123C60.4532 34.123 59.5508 33.3613 59.4219 32.2363L59.416 32.1836H60.67L60.6817 32.2422C60.7989 32.8105 61.2207 33.1445 62 33.1445C62.7618 33.1445 63.2188 32.8281 63.2188 32.3301V32.3242C63.2188 31.9258 62.9961 31.6973 62.334 31.5391L61.3262 31.3105C60.1543 31.041 59.5743 30.4785 59.5743 29.582V29.5762C59.5743 28.4746 60.5352 27.7188 61.9532 27.7188C63.4121 27.7188 64.291 28.5332 64.3555 29.582L64.3614 29.6523H63.1719L63.166 29.6113C63.0899 29.0723 62.668 28.6973 61.9532 28.6973C61.2735 28.6973 60.8457 29.0195 60.8457 29.5117V29.5176C60.8457 29.8984 61.0977 30.1562 61.7598 30.3145L62.7618 30.543C64.0215 30.8359 64.502 31.334 64.502 32.2188V32.2246C64.502 33.3496 63.4473 34.123 61.9942 34.123ZM68.0685 34.123C66.8497 34.123 66.2638 33.6074 66.2638 32.377V28.8438H65.379V27.8359H66.2638V26.2305H67.5587V27.8359H68.713V28.8438H67.5587V32.3008C67.5587 32.9277 67.84 33.1152 68.3732 33.1152C68.5079 33.1152 68.6193 33.1035 68.713 33.0918V34.0703C68.5665 34.0938 68.3263 34.123 68.0685 34.123ZM72.4904 34.123C70.9494 34.123 70.0471 33.3613 69.9182 32.2363L69.9123 32.1836H71.1662L71.1779 32.2422C71.2951 32.8105 71.717 33.1445 72.4963 33.1445C73.258 33.1445 73.715 32.8281 73.715 32.3301V32.3242C73.715 31.9258 73.4924 31.6973 72.8303 31.5391L71.8225 31.3105C70.6506 31.041 70.0705 30.4785 70.0705 29.582V29.5762C70.0705 28.4746 71.0314 27.7188 72.4494 27.7188C73.9084 27.7188 74.7873 28.5332 74.8518 29.582L74.8576 29.6523H73.6682L73.6623 29.6113C73.5861 29.0723 73.1643 28.6973 72.4494 28.6973C71.7697 28.6973 71.342 29.0195 71.342 29.5117V29.5176C71.342 29.8984 71.5939 30.1562 72.2561 30.3145L73.258 30.543C74.5178 30.8359 74.9982 31.334 74.9982 32.2188V32.2246C74.9982 33.3496 73.9436 34.123 72.4904 34.123ZM81.0707 34.1113C79.8402 34.1113 79.014 33.3555 79.014 32.248V32.2363C79.014 31.1641 79.8461 30.5078 81.305 30.4199L82.9808 30.3203V29.8574C82.9808 29.1777 82.5414 28.7676 81.7562 28.7676C81.0238 28.7676 80.5726 29.1133 80.4671 29.6055L80.4554 29.6582H79.2601L79.266 29.5938C79.3539 28.5332 80.2738 27.7188 81.7914 27.7188C83.2972 27.7188 84.2523 28.5156 84.2523 29.752V34H82.9808V33.0273H82.9574C82.6 33.6895 81.8851 34.1113 81.0707 34.1113ZM80.2914 32.2188C80.2914 32.7578 80.7367 33.0977 81.4164 33.0977C82.307 33.0977 82.9808 32.4941 82.9808 31.6914V31.2109L81.475 31.3047C80.7132 31.3516 80.2914 31.6855 80.2914 32.207V32.2188ZM85.9028 34V27.8359H87.1684V28.7676H87.1977C87.52 28.1406 88.1528 27.7188 89.0844 27.7188C90.4379 27.7188 91.2172 28.5918 91.2172 30.0098V34H89.9457V30.25C89.9457 29.3242 89.5121 28.8027 88.6332 28.8027C87.7426 28.8027 87.1684 29.4473 87.1684 30.4082V34H85.9028ZM95.1646 34.123C93.5943 34.123 92.5864 32.8809 92.5864 30.918V30.9121C92.5864 28.9492 93.606 27.7188 95.1528 27.7188C96.0259 27.7188 96.729 28.1582 97.0982 28.8848H97.1216V25.5449H98.3931V34H97.1216V32.957H97.0982C96.729 33.6777 96.0493 34.123 95.1646 34.123ZM95.4986 33.0332C96.4536 33.0332 97.1275 32.2012 97.1275 30.918V30.9121C97.1275 29.6348 96.4478 28.8027 95.4986 28.8027C94.5025 28.8027 93.8814 29.6113 93.8814 30.9121V30.918C93.8814 32.2305 94.4966 33.0332 95.4986 33.0332ZM105.221 34V26.6758H102.632V25.5449H109.118V26.6758H106.534V34H105.221ZM111.577 34.123C109.766 34.123 108.671 32.8867 108.671 30.9414V30.9355C108.671 29.0078 109.784 27.7188 111.512 27.7188C113.241 27.7188 114.302 28.9609 114.302 30.8125V31.2402H109.936C109.96 32.4062 110.598 33.0859 111.606 33.0859C112.356 33.0859 112.854 32.6992 113.012 32.2363L113.03 32.1895H114.231L114.219 32.2539C114.02 33.2324 113.071 34.123 111.577 34.123ZM111.518 28.7559C110.698 28.7559 110.065 29.3125 109.954 30.3438H113.048C112.942 29.2773 112.344 28.7559 111.518 28.7559ZM115.753 34V25.5449H117.018V34H115.753ZM121.37 34.123C119.559 34.123 118.464 32.8867 118.464 30.9414V30.9355C118.464 29.0078 119.577 27.7188 121.306 27.7188C123.034 27.7188 124.095 28.9609 124.095 30.8125V31.2402H119.729C119.753 32.4062 120.392 33.0859 121.399 33.0859C122.149 33.0859 122.647 32.6992 122.806 32.2363L122.823 32.1895H124.024L124.013 32.2539C123.813 33.2324 122.864 34.123 121.37 34.123ZM121.311 28.7559C120.491 28.7559 119.858 29.3125 119.747 30.3438H122.841C122.735 29.2773 122.138 28.7559 121.311 28.7559ZM128.147 34.123C126.349 34.123 125.224 32.8867 125.224 30.9121V30.9062C125.224 28.9551 126.372 27.7188 128.13 27.7188C129.718 27.7188 130.679 28.7383 130.784 29.8984L130.79 29.9395H129.583L129.571 29.8926C129.437 29.2891 128.968 28.7793 128.142 28.7793C127.157 28.7793 126.519 29.5996 126.519 30.918V30.9238C126.519 32.2715 127.169 33.0625 128.147 33.0625C128.927 33.0625 129.425 32.6113 129.577 31.9434L129.583 31.8965H130.802L130.796 31.9375C130.661 33.1738 129.63 34.123 128.147 34.123ZM134.767 34.123C132.997 34.123 131.843 32.8984 131.843 30.918V30.9062C131.843 28.9375 133.009 27.7188 134.761 27.7188C136.519 27.7188 137.691 28.9316 137.691 30.9062V30.918C137.691 32.9043 136.53 34.123 134.767 34.123ZM134.773 33.0625C135.763 33.0625 136.396 32.2773 136.396 30.918V30.9062C136.396 29.5586 135.751 28.7793 134.761 28.7793C133.788 28.7793 133.138 29.5586 133.138 30.9062V30.918C133.138 32.2832 133.782 33.0625 134.773 33.0625ZM139.089 34V27.8359H140.355V28.791H140.384C140.648 28.1465 141.275 27.7188 142.083 27.7188C142.933 27.7188 143.554 28.1582 143.8 28.9316H143.829C144.146 28.1816 144.872 27.7188 145.751 27.7188C146.97 27.7188 147.767 28.5273 147.767 29.7637V34H146.495V30.0684C146.495 29.2656 146.068 28.8027 145.318 28.8027C144.568 28.8027 144.046 29.3652 144.046 30.1445V34H142.804V29.9746C142.804 29.2598 142.353 28.8027 141.638 28.8027C140.888 28.8027 140.355 29.3945 140.355 30.1914V34H139.089ZM149.411 34V27.8359H150.677V28.791H150.706C150.97 28.1465 151.597 27.7188 152.406 27.7188C153.255 27.7188 153.876 28.1582 154.122 28.9316H154.152C154.468 28.1816 155.195 27.7188 156.073 27.7188C157.292 27.7188 158.089 28.5273 158.089 29.7637V34H156.818V30.0684C156.818 29.2656 156.39 28.8027 155.64 28.8027C154.89 28.8027 154.368 29.3652 154.368 30.1445V34H153.126V29.9746C153.126 29.2598 152.675 28.8027 151.96 28.8027C151.21 28.8027 150.677 29.3945 150.677 30.1914V34H149.411ZM161.831 34.123C160.478 34.123 159.704 33.25 159.704 31.832V27.8359H160.97V31.5859C160.97 32.5176 161.404 33.0332 162.283 33.0332C163.173 33.0332 163.747 32.3945 163.747 31.4336V27.8359H165.019V34H163.747V33.0742H163.718C163.396 33.6953 162.769 34.123 161.831 34.123ZM166.693 34V27.8359H167.958V28.7676H167.988C168.31 28.1406 168.943 27.7188 169.874 27.7188C171.228 27.7188 172.007 28.5918 172.007 30.0098V34H170.736V30.25C170.736 29.3242 170.302 28.8027 169.423 28.8027C168.533 28.8027 167.958 29.4473 167.958 30.4082V34H166.693ZM174.337 26.8867C173.927 26.8867 173.599 26.5586 173.599 26.1602C173.599 25.7559 173.927 25.4277 174.337 25.4277C174.753 25.4277 175.076 25.7559 175.076 26.1602C175.076 26.5586 174.753 26.8867 174.337 26.8867ZM173.705 34V27.8359H174.97V34H173.705ZM179.345 34.123C177.546 34.123 176.421 32.8867 176.421 30.9121V30.9062C176.421 28.9551 177.57 27.7188 179.328 27.7188C180.916 27.7188 181.877 28.7383 181.982 29.8984L181.988 29.9395H180.781L180.769 29.8926C180.634 29.2891 180.166 28.7793 179.339 28.7793C178.355 28.7793 177.716 29.5996 177.716 30.918V30.9238C177.716 32.2715 178.367 33.0625 179.345 33.0625C180.125 33.0625 180.623 32.6113 180.775 31.9434L180.781 31.8965H182L181.994 31.9375C181.859 33.1738 180.828 34.123 179.345 34.123ZM185.127 34.1113C183.896 34.1113 183.07 33.3555 183.07 32.248V32.2363C183.07 31.1641 183.902 30.5078 185.361 30.4199L187.037 30.3203V29.8574C187.037 29.1777 186.597 28.7676 185.812 28.7676C185.08 28.7676 184.629 29.1133 184.523 29.6055L184.511 29.6582H183.316L183.322 29.5938C183.41 28.5332 184.33 27.7188 185.847 27.7188C187.353 27.7188 188.308 28.5156 188.308 29.752V34H187.037V33.0273H187.013C186.656 33.6895 185.941 34.1113 185.127 34.1113ZM184.347 32.2188C184.347 32.7578 184.793 33.0977 185.472 33.0977C186.363 33.0977 187.037 32.4941 187.037 31.6914V31.2109L185.531 31.3047C184.769 31.3516 184.347 31.6855 184.347 32.207V32.2188ZM192.121 34.123C190.902 34.123 190.316 33.6074 190.316 32.377V28.8438H189.431V27.8359H190.316V26.2305H191.611V27.8359H192.765V28.8438H191.611V32.3008C191.611 32.9277 191.892 33.1152 192.426 33.1152C192.56 33.1152 192.672 33.1035 192.765 33.0918V34.0703C192.619 34.0938 192.379 34.123 192.121 34.123ZM194.92 26.8867C194.51 26.8867 194.181 26.5586 194.181 26.1602C194.181 25.7559 194.51 25.4277 194.92 25.4277C195.336 25.4277 195.658 25.7559 195.658 26.1602C195.658 26.5586 195.336 26.8867 194.92 26.8867ZM194.287 34V27.8359H195.553V34H194.287ZM199.928 34.123C198.158 34.123 197.004 32.8984 197.004 30.918V30.9062C197.004 28.9375 198.17 27.7188 199.922 27.7188C201.68 27.7188 202.851 28.9316 202.851 30.9062V30.918C202.851 32.9043 201.691 34.123 199.928 34.123ZM199.933 33.0625C200.924 33.0625 201.557 32.2773 201.557 30.918V30.9062C201.557 29.5586 200.912 28.7793 199.922 28.7793C198.949 28.7793 198.299 29.5586 198.299 30.9062V30.918C198.299 32.2832 198.943 33.0625 199.933 33.0625ZM204.25 34V27.8359H205.516V28.7676H205.545C205.867 28.1406 206.5 27.7188 207.432 27.7188C208.785 27.7188 209.564 28.5918 209.564 30.0098V34H208.293V30.25C208.293 29.3242 207.859 28.8027 206.98 28.8027C206.09 28.8027 205.516 29.4473 205.516 30.4082V34H204.25ZM213.518 34.123C211.977 34.123 211.074 33.3613 210.945 32.2363L210.939 32.1836H212.193L212.205 32.2422C212.322 32.8105 212.744 33.1445 213.523 33.1445C214.285 33.1445 214.742 32.8281 214.742 32.3301V32.3242C214.742 31.9258 214.52 31.6973 213.857 31.5391L212.85 31.3105C211.678 31.041 211.098 30.4785 211.098 29.582V29.5762C211.098 28.4746 212.059 27.7188 213.477 27.7188C214.936 27.7188 215.814 28.5332 215.879 29.582L215.885 29.6523H214.695L214.689 29.6113C214.613 29.0723 214.191 28.6973 213.477 28.6973C212.797 28.6973 212.369 29.0195 212.369 29.5117V29.5176C212.369 29.8984 212.621 30.1562 213.283 30.3145L214.285 30.543C215.545 30.8359 216.025 31.334 216.025 32.2188V32.2246C216.025 33.3496 214.971 34.123 213.518 34.123ZM220.44 34V25.5449H221.752V34H220.44ZM223.578 34V27.8359H224.844V28.7676H224.873C225.196 28.1406 225.828 27.7188 226.76 27.7188C228.114 27.7188 228.893 28.5918 228.893 30.0098V34H227.621V30.25C227.621 29.3242 227.188 28.8027 226.309 28.8027C225.418 28.8027 224.844 29.4473 224.844 30.4082V34H223.578ZM232.846 34.123C231.305 34.123 230.403 33.3613 230.274 32.2363L230.268 32.1836H231.522L231.534 32.2422C231.651 32.8105 232.073 33.1445 232.852 33.1445C233.614 33.1445 234.071 32.8281 234.071 32.3301V32.3242C234.071 31.9258 233.848 31.6973 233.186 31.5391L232.178 31.3105C231.006 31.041 230.426 30.4785 230.426 29.582V29.5762C230.426 28.4746 231.387 27.7188 232.805 27.7188C234.264 27.7188 235.143 28.5332 235.207 29.582L235.213 29.6523H234.024L234.018 29.6113C233.942 29.0723 233.52 28.6973 232.805 28.6973C232.125 28.6973 231.698 29.0195 231.698 29.5117V29.5176C231.698 29.8984 231.95 30.1562 232.612 30.3145L233.614 30.543C234.873 30.8359 235.354 31.334 235.354 32.2188V32.2246C235.354 33.3496 234.299 34.123 232.846 34.123ZM238.92 34.123C237.702 34.123 237.116 33.6074 237.116 32.377V28.8438H236.231V27.8359H237.116V26.2305H238.411V27.8359H239.565V28.8438H238.411V32.3008C238.411 32.9277 238.692 33.1152 239.225 33.1152C239.36 33.1152 239.471 33.1035 239.565 33.0918V34.0703C239.418 34.0938 239.178 34.123 238.92 34.123ZM241.719 26.8867C241.309 26.8867 240.981 26.5586 240.981 26.1602C240.981 25.7559 241.309 25.4277 241.719 25.4277C242.135 25.4277 242.458 25.7559 242.458 26.1602C242.458 26.5586 242.135 26.8867 241.719 26.8867ZM241.086 34V27.8359H242.352V34H241.086ZM246.241 34.123C245.022 34.123 244.436 33.6074 244.436 32.377V28.8438H243.551V27.8359H244.436V26.2305H245.731V27.8359H246.885V28.8438H245.731V32.3008C245.731 32.9277 246.012 33.1152 246.546 33.1152C246.68 33.1152 246.792 33.1035 246.885 33.0918V34.0703C246.739 34.0938 246.499 34.123 246.241 34.123ZM250.452 34.123C249.098 34.123 248.325 33.25 248.325 31.832V27.8359H249.59V31.5859C249.59 32.5176 250.024 33.0332 250.903 33.0332C251.794 33.0332 252.368 32.3945 252.368 31.4336V27.8359H253.639V34H252.368V33.0742H252.339C252.016 33.6953 251.389 34.123 250.452 34.123ZM257.475 34.123C256.257 34.123 255.671 33.6074 255.671 32.377V28.8438H254.786V27.8359H255.671V26.2305H256.966V27.8359H258.12V28.8438H256.966V32.3008C256.966 32.9277 257.247 33.1152 257.78 33.1152C257.915 33.1152 258.026 33.1035 258.12 33.0918V34.0703C257.973 34.0938 257.733 34.123 257.475 34.123ZM262.067 34.123C260.257 34.123 259.161 32.8867 259.161 30.9414V30.9355C259.161 29.0078 260.274 27.7188 262.003 27.7188C263.731 27.7188 264.792 28.9609 264.792 30.8125V31.2402H260.427C260.45 32.4062 261.089 33.0859 262.097 33.0859C262.847 33.0859 263.345 32.6992 263.503 32.2363L263.52 32.1895H264.722L264.71 32.2539C264.511 33.2324 263.561 34.123 262.067 34.123ZM262.009 28.7559C261.188 28.7559 260.555 29.3125 260.444 30.3438H263.538C263.432 29.2773 262.835 28.7559 262.009 28.7559ZM271.702 34.123C269.933 34.123 268.778 32.8984 268.778 30.918V30.9062C268.778 28.9375 269.944 27.7188 271.696 27.7188C273.454 27.7188 274.626 28.9316 274.626 30.9062V30.918C274.626 32.9043 273.466 34.123 271.702 34.123ZM271.708 33.0625C272.698 33.0625 273.331 32.2773 273.331 30.918V30.9062C273.331 29.5586 272.687 28.7793 271.696 28.7793C270.724 28.7793 270.073 29.5586 270.073 30.9062V30.918C270.073 32.2832 270.718 33.0625 271.708 33.0625ZM276.394 34V28.8438H275.544V27.8359H276.394V27.1797C276.394 25.9844 276.956 25.4219 278.21 25.4219C278.468 25.4219 278.749 25.4453 278.919 25.4746V26.4121C278.796 26.3945 278.638 26.3828 278.48 26.3828C277.911 26.3828 277.642 26.6582 277.642 27.2031V27.8359H278.896V28.8438H277.665V34H276.394ZM285.419 34V26.6758H282.829V25.5449H289.316V26.6758H286.732V34H285.419ZM291.775 34.123C289.964 34.123 288.868 32.8867 288.868 30.9414V30.9355C288.868 29.0078 289.982 27.7188 291.71 27.7188C293.439 27.7188 294.499 28.9609 294.499 30.8125V31.2402H290.134C290.158 32.4062 290.796 33.0859 291.804 33.0859C292.554 33.0859 293.052 32.6992 293.21 32.2363L293.228 32.1895H294.429L294.417 32.2539C294.218 33.2324 293.269 34.123 291.775 34.123ZM291.716 28.7559C290.896 28.7559 290.263 29.3125 290.152 30.3438H293.245C293.14 29.2773 292.542 28.7559 291.716 28.7559ZM298.552 34.123C296.753 34.123 295.628 32.8867 295.628 30.9121V30.9062C295.628 28.9551 296.777 27.7188 298.535 27.7188C300.122 27.7188 301.083 28.7383 301.189 29.8984L301.195 29.9395H299.988L299.976 29.8926C299.841 29.2891 299.372 28.7793 298.546 28.7793C297.562 28.7793 296.923 29.5996 296.923 30.918V30.9238C296.923 32.2715 297.574 33.0625 298.552 33.0625C299.331 33.0625 299.829 32.6113 299.982 31.9434L299.988 31.8965H301.206L301.201 31.9375C301.066 33.1738 300.035 34.123 298.552 34.123ZM302.57 34V25.5449H303.835V28.8496H303.865C304.193 28.1348 304.855 27.7188 305.775 27.7188C307.093 27.7188 307.96 28.7031 307.96 30.1914V34H306.695V30.4316C306.695 29.4121 306.179 28.8027 305.289 28.8027C304.415 28.8027 303.835 29.4707 303.835 30.4316V34H302.57ZM309.611 34V27.8359H310.877V28.7676H310.906C311.228 28.1406 311.861 27.7188 312.793 27.7188C314.146 27.7188 314.925 28.5918 314.925 30.0098V34H313.654V30.25C313.654 29.3242 313.22 28.8027 312.341 28.8027C311.451 28.8027 310.877 29.4473 310.877 30.4082V34H309.611ZM319.218 34.123C317.449 34.123 316.295 32.8984 316.295 30.918V30.9062C316.295 28.9375 317.461 27.7188 319.213 27.7188C320.97 27.7188 322.142 28.9316 322.142 30.9062V30.918C322.142 32.9043 320.982 34.123 319.218 34.123ZM319.224 33.0625C320.214 33.0625 320.847 32.2773 320.847 30.918V30.9062C320.847 29.5586 320.203 28.7793 319.213 28.7793C318.24 28.7793 317.589 29.5586 317.589 30.9062V30.918C317.589 32.2832 318.234 33.0625 319.224 33.0625ZM323.588 34V25.5449H324.853V34H323.588ZM329.222 34.123C327.453 34.123 326.299 32.8984 326.299 30.918V30.9062C326.299 28.9375 327.465 27.7188 329.217 27.7188C330.974 27.7188 332.146 28.9316 332.146 30.9062V30.918C332.146 32.9043 330.986 34.123 329.222 34.123ZM329.228 33.0625C330.219 33.0625 330.851 32.2773 330.851 30.918V30.9062C330.851 29.5586 330.207 28.7793 329.217 28.7793C328.244 28.7793 327.594 29.5586 327.594 30.9062V30.918C327.594 32.2832 328.238 33.0625 329.228 33.0625ZM336.246 36.1738C334.664 36.1738 333.662 35.4414 333.474 34.498L333.469 34.4453H334.723L334.746 34.4922C334.916 34.8848 335.449 35.1543 336.24 35.1543C337.248 35.1543 337.805 34.6152 337.805 33.7539V32.9102H337.775C337.424 33.5781 336.721 34.0059 335.836 34.0059C334.289 34.0059 333.269 32.793 333.269 30.8711V30.8652C333.269 28.9316 334.301 27.7188 335.865 27.7188C336.732 27.7188 337.412 28.1875 337.775 28.8848H337.805V27.8359H339.076V33.8301C339.076 35.2363 337.986 36.1738 336.246 36.1738ZM336.193 32.9746C337.16 32.9746 337.805 32.1602 337.805 30.8887V30.8828C337.805 29.6172 337.154 28.8027 336.193 28.8027C335.191 28.8027 334.564 29.6113 334.564 30.8828V30.8887C334.564 32.1777 335.191 32.9746 336.193 32.9746ZM341.477 36.0566C341.23 36.0566 340.967 36.0273 340.814 35.998V35.0078C340.914 35.0312 341.061 35.0547 341.23 35.0547C341.828 35.0547 342.156 34.8965 342.367 34.2988L342.473 34.0059L340.228 27.8359H341.6L343.152 32.8516H343.193L344.746 27.8359H346.082L343.785 34.2871C343.328 35.5645 342.684 36.0566 341.477 36.0566Z" fill="#BC2626"/>
<defs>
<clipPath id="clip0_1234_17362">
<rect width="32.8358" height="40" fill="white"/>
</clipPath>
</defs>
</svg>
