<svg width="72" height="48" viewBox="0 0 72 48" fill="none" xmlns="http://www.w3.org/2000/svg">
<g clip-path="url(#clip0_3533_103)">
<mask id="mask0_3533_103" style="mask-type:luminance" maskUnits="userSpaceOnUse" x="0" y="0" width="83" height="48">
<path d="M0 0H82.2909V48H0V0Z" fill="white"/>
</mask>
<g mask="url(#mask0_3533_103)">
<path d="M0 44.3083H82.2909V48H0V44.3083Z" fill="#F32837"/>
</g>
<mask id="mask1_3533_103" style="mask-type:luminance" maskUnits="userSpaceOnUse" x="0" y="0" width="83" height="48">
<path d="M0 0H82.2909V48H0V0Z" fill="white"/>
</mask>
<g mask="url(#mask1_3533_103)">
<path d="M0 40.6161H82.2909V44.3083H0V40.6161Z" fill="#FFF5F5"/>
</g>
<mask id="mask2_3533_103" style="mask-type:luminance" maskUnits="userSpaceOnUse" x="0" y="0" width="83" height="48">
<path d="M0 0H82.2909V48H0V0Z" fill="white"/>
</mask>
<g mask="url(#mask2_3533_103)">
<path d="M0 36.9265H82.2909V40.6161H0V36.9265Z" fill="#F32837"/>
</g>
<mask id="mask3_3533_103" style="mask-type:luminance" maskUnits="userSpaceOnUse" x="0" y="0" width="83" height="48">
<path d="M0 0H82.2909V48H0V0Z" fill="white"/>
</mask>
<g mask="url(#mask3_3533_103)">
<path d="M0 33.2348H82.2909V36.9266H0V33.2348Z" fill="#FFF5F5"/>
</g>
<mask id="mask4_3533_103" style="mask-type:luminance" maskUnits="userSpaceOnUse" x="0" y="0" width="83" height="48">
<path d="M0 0H82.2909V48H0V0Z" fill="white"/>
</mask>
<g mask="url(#mask4_3533_103)">
<path d="M0 29.5403H82.2909V33.2348H0V29.5403Z" fill="#F32837"/>
</g>
<mask id="mask5_3533_103" style="mask-type:luminance" maskUnits="userSpaceOnUse" x="0" y="0" width="83" height="48">
<path d="M0 0H82.2909V48H0V0Z" fill="white"/>
</mask>
<g mask="url(#mask5_3533_103)">
<path d="M0 25.851H82.2909V29.5403H0V25.851Z" fill="#FFF5F5"/>
</g>
<mask id="mask6_3533_103" style="mask-type:luminance" maskUnits="userSpaceOnUse" x="0" y="0" width="83" height="48">
<path d="M0 0H82.2909V48H0V0Z" fill="white"/>
</mask>
<g mask="url(#mask6_3533_103)">
<path d="M0 22.1542H82.2909V25.8509H0V22.1542Z" fill="#F32837"/>
</g>
<mask id="mask7_3533_103" style="mask-type:luminance" maskUnits="userSpaceOnUse" x="0" y="0" width="83" height="48">
<path d="M0 0H82.2909V48H0V0Z" fill="white"/>
</mask>
<g mask="url(#mask7_3533_103)">
<path d="M0 18.4646H82.2909V22.1542H0V18.4646Z" fill="#FFF5F5"/>
</g>
<mask id="mask8_3533_103" style="mask-type:luminance" maskUnits="userSpaceOnUse" x="0" y="0" width="83" height="48">
<path d="M0 0H82.2909V48H0V0Z" fill="white"/>
</mask>
<g mask="url(#mask8_3533_103)">
<path d="M0 14.7726H82.2909V18.4647H0V14.7726Z" fill="#F32837"/>
</g>
<mask id="mask9_3533_103" style="mask-type:luminance" maskUnits="userSpaceOnUse" x="0" y="0" width="83" height="48">
<path d="M0 0H82.2909V48H0V0Z" fill="white"/>
</mask>
<g mask="url(#mask9_3533_103)">
<path d="M0 11.0783H82.2909V14.7726H0V11.0783Z" fill="#FFF5F5"/>
</g>
<mask id="mask10_3533_103" style="mask-type:luminance" maskUnits="userSpaceOnUse" x="0" y="0" width="83" height="48">
<path d="M0 0H82.2909V48H0V0Z" fill="white"/>
</mask>
<g mask="url(#mask10_3533_103)">
<path d="M0 7.38623H82.2909V11.0783H0V7.38623Z" fill="#F32837"/>
</g>
<mask id="mask11_3533_103" style="mask-type:luminance" maskUnits="userSpaceOnUse" x="0" y="0" width="83" height="48">
<path d="M0 0H82.2909V48H0V0Z" fill="white"/>
</mask>
<g mask="url(#mask11_3533_103)">
<path d="M0 3.69449H82.2909V7.38624H0V3.69449Z" fill="#FFF5F5"/>
</g>
<mask id="mask12_3533_103" style="mask-type:luminance" maskUnits="userSpaceOnUse" x="0" y="0" width="83" height="48">
<path d="M0 0H82.2909V48H0V0Z" fill="white"/>
</mask>
<g mask="url(#mask12_3533_103)">
<path d="M0 0H82.2909V3.69449H0V0Z" fill="#F32837"/>
</g>
<mask id="mask13_3533_103" style="mask-type:luminance" maskUnits="userSpaceOnUse" x="0" y="0" width="83" height="48">
<path d="M0 0H82.2909V48H0V0Z" fill="white"/>
</mask>
<g mask="url(#mask13_3533_103)">
<path d="M0 0H37.5805V25.8509H0V0Z" fill="#2A3560"/>
<mask id="mask14_3533_103" style="mask-type:luminance" maskUnits="userSpaceOnUse" x="0" y="0" width="83" height="48">
<path d="M0 0H82.2909V48H0V0Z" fill="white"/>
</mask>
<g mask="url(#mask14_3533_103)">
<path d="M3.39505 2.84906L3.71596 3.82835H4.74544L3.91217 4.43166L4.22843 5.40869L3.39505 4.80538L2.56191 5.40869L2.88758 4.43166L2.0542 3.82835H3.07414L3.39505 2.84906Z" fill="#FFF5F5"/>
</g>
<mask id="mask15_3533_103" style="mask-type:luminance" maskUnits="userSpaceOnUse" x="0" y="0" width="83" height="48">
<path d="M0 0H82.2909V48H0V0Z" fill="white"/>
</mask>
<g mask="url(#mask15_3533_103)">
<path d="M3.39505 7.16608L3.71596 8.14048H4.74544L3.91217 8.74141L4.22843 9.72297L3.39505 9.11751L2.56191 9.72297L2.88758 8.74141L2.0542 8.14048H3.07414L3.39505 7.16608Z" fill="#FFF5F5"/>
</g>
<mask id="mask16_3533_103" style="mask-type:luminance" maskUnits="userSpaceOnUse" x="0" y="0" width="83" height="48">
<path d="M0 0H82.2909V48H0V0Z" fill="white"/>
</mask>
<g mask="url(#mask16_3533_103)">
<path d="M3.39505 11.4804L3.71596 12.455H4.74544L3.91217 13.0584L4.22843 14.0376L3.39505 13.4318L2.56191 14.0376L2.88758 13.0584L2.0542 12.455H3.07414L3.39505 11.4804Z" fill="#FFF5F5"/>
</g>
<mask id="mask17_3533_103" style="mask-type:luminance" maskUnits="userSpaceOnUse" x="0" y="0" width="83" height="48">
<path d="M0 0H82.2909V48H0V0Z" fill="white"/>
</mask>
<g mask="url(#mask17_3533_103)">
<path d="M3.39505 15.7925L3.71596 16.7717H4.74544L3.91217 17.375L4.22843 18.3497L3.39505 17.7487L2.56191 18.3497L2.88758 17.375L2.0542 16.7717H3.07414L3.39505 15.7925Z" fill="#FFF5F5"/>
</g>
<mask id="mask18_3533_103" style="mask-type:luminance" maskUnits="userSpaceOnUse" x="0" y="0" width="83" height="48">
<path d="M0 0H82.2909V48H0V0Z" fill="white"/>
</mask>
<g mask="url(#mask18_3533_103)">
<path d="M3.39505 20.107L3.71596 21.0887H4.74544L3.91217 21.6871L4.22843 22.6642L3.39505 22.0608L2.56191 22.6642L2.88758 21.6871L2.0542 21.0887H3.07414L3.39505 20.107Z" fill="#FFF5F5"/>
</g>
<mask id="mask19_3533_103" style="mask-type:luminance" maskUnits="userSpaceOnUse" x="0" y="0" width="83" height="48">
<path d="M0 0H82.2909V48H0V0Z" fill="white"/>
</mask>
<g mask="url(#mask19_3533_103)">
<path d="M6.40238 5.1214L6.70886 6.10057H7.74299L6.91485 6.70639L7.22599 7.68067L6.40238 7.07975L5.574 7.68067L5.88514 6.70639L5.05664 6.10057H6.08636L6.40238 5.1214Z" fill="#FFF5F5"/>
</g>
<mask id="mask20_3533_103" style="mask-type:luminance" maskUnits="userSpaceOnUse" x="0" y="0" width="83" height="48">
<path d="M0 0H82.2909V48H0V0Z" fill="white"/>
</mask>
<g mask="url(#mask20_3533_103)">
<path d="M6.40238 9.43817L6.70886 10.4127H7.74299L6.91485 11.0185L7.22599 11.9928L6.40238 11.3944L5.574 11.9928L5.88514 11.0185L5.05664 10.4127H6.08636L6.40238 9.43817Z" fill="#FFF5F5"/>
</g>
<mask id="mask21_3533_103" style="mask-type:luminance" maskUnits="userSpaceOnUse" x="0" y="0" width="83" height="48">
<path d="M0 0H82.2909V48H0V0Z" fill="white"/>
</mask>
<g mask="url(#mask21_3533_103)">
<path d="M6.40238 13.7527L6.70886 14.7294H7.74299L6.91485 15.3328L7.22599 16.3098L6.40238 15.7065L5.574 16.3098L5.88514 15.3328L5.05664 14.7294H6.08636L6.40238 13.7527Z" fill="#FFF5F5"/>
</g>
<mask id="mask22_3533_103" style="mask-type:luminance" maskUnits="userSpaceOnUse" x="0" y="0" width="83" height="48">
<path d="M0 0H82.2909V48H0V0Z" fill="white"/>
</mask>
<g mask="url(#mask22_3533_103)">
<path d="M6.40238 18.0694L6.70886 19.0439H7.74299L6.91485 19.6474L7.22599 20.6219L6.40238 20.0161L5.574 20.6219L5.88514 19.6474L5.05664 19.0439H6.08636L6.40238 18.0694Z" fill="#FFF5F5"/>
</g>
<mask id="mask23_3533_103" style="mask-type:luminance" maskUnits="userSpaceOnUse" x="0" y="0" width="83" height="48">
<path d="M0 0H82.2909V48H0V0Z" fill="white"/>
</mask>
<g mask="url(#mask23_3533_103)">
<path d="M9.43851 2.84906L9.75918 3.82835H10.7887L9.95563 4.43166L10.2763 5.40869L9.43851 4.80538L8.61478 5.40869L8.9308 4.43166L8.09766 3.82835H9.12225L9.43851 2.84906Z" fill="#FFF5F5"/>
</g>
<mask id="mask24_3533_103" style="mask-type:luminance" maskUnits="userSpaceOnUse" x="0" y="0" width="83" height="48">
<path d="M0 0H82.2909V48H0V0Z" fill="white"/>
</mask>
<g mask="url(#mask24_3533_103)">
<path d="M9.43851 7.16608L9.75918 8.14048H10.7887L9.95563 8.74141L10.2763 9.72297L9.43851 9.11751L8.61478 9.72297L8.9308 8.74141L8.09766 8.14048H9.12225L9.43851 7.16608Z" fill="#FFF5F5"/>
</g>
<mask id="mask25_3533_103" style="mask-type:luminance" maskUnits="userSpaceOnUse" x="0" y="0" width="83" height="48">
<path d="M0 0H82.2909V48H0V0Z" fill="white"/>
</mask>
<g mask="url(#mask25_3533_103)">
<path d="M9.43851 11.4804L9.75918 12.455H10.7887L9.95563 13.0584L10.2763 14.0376L9.43851 13.4318L8.61478 14.0376L8.9308 13.0584L8.09766 12.455H9.12225L9.43851 11.4804Z" fill="#FFF5F5"/>
</g>
<mask id="mask26_3533_103" style="mask-type:luminance" maskUnits="userSpaceOnUse" x="0" y="0" width="83" height="48">
<path d="M0 0H82.2909V48H0V0Z" fill="white"/>
</mask>
<g mask="url(#mask26_3533_103)">
<path d="M9.43851 15.7925L9.75918 16.7717H10.7887L9.95563 17.375L10.2763 18.3497L9.43851 17.7487L8.61478 18.3497L8.9308 17.375L8.09766 16.7717H9.12225L9.43851 15.7925Z" fill="#FFF5F5"/>
</g>
<mask id="mask27_3533_103" style="mask-type:luminance" maskUnits="userSpaceOnUse" x="0" y="0" width="83" height="48">
<path d="M0 0H82.2909V48H0V0Z" fill="white"/>
</mask>
<g mask="url(#mask27_3533_103)">
<path d="M9.43851 20.107L9.75918 21.0887H10.7887L9.95563 21.6871L10.2763 22.6642L9.43851 22.0608L8.61478 22.6642L8.9308 21.6871L8.09766 21.0887H9.12225L9.43851 20.107Z" fill="#FFF5F5"/>
</g>
<mask id="mask28_3533_103" style="mask-type:luminance" maskUnits="userSpaceOnUse" x="0" y="0" width="83" height="48">
<path d="M0 0H82.2909V48H0V0Z" fill="white"/>
</mask>
<g mask="url(#mask28_3533_103)">
<path d="M12.4456 5.1214L12.7616 6.10057H13.796L12.9581 6.70639L13.279 7.68067L12.4456 7.07975L11.6172 7.68067L11.9381 6.70639L11.1001 6.10057H12.1296L12.4456 5.1214Z" fill="#FFF5F5"/>
</g>
<mask id="mask29_3533_103" style="mask-type:luminance" maskUnits="userSpaceOnUse" x="0" y="0" width="83" height="48">
<path d="M0 0H82.2909V48H0V0Z" fill="white"/>
</mask>
<g mask="url(#mask29_3533_103)">
<path d="M12.4456 9.43817L12.7616 10.4127H13.796L12.9581 11.0185L13.279 11.9928L12.4456 11.3944L11.6172 11.9928L11.9381 11.0185L11.1001 10.4127H12.1296L12.4456 9.43817Z" fill="#FFF5F5"/>
</g>
<mask id="mask30_3533_103" style="mask-type:luminance" maskUnits="userSpaceOnUse" x="0" y="0" width="83" height="48">
<path d="M0 0H82.2909V48H0V0Z" fill="white"/>
</mask>
<g mask="url(#mask30_3533_103)">
<path d="M12.4456 13.7527L12.7616 14.7294H13.796L12.9581 15.3328L13.279 16.3098L12.4456 15.7065L11.6172 16.3098L11.9381 15.3328L11.1001 14.7294H12.1296L12.4456 13.7527Z" fill="#FFF5F5"/>
</g>
<mask id="mask31_3533_103" style="mask-type:luminance" maskUnits="userSpaceOnUse" x="0" y="0" width="83" height="48">
<path d="M0 0H82.2909V48H0V0Z" fill="white"/>
</mask>
<g mask="url(#mask31_3533_103)">
<path d="M12.4456 18.0694L12.7616 19.0439H13.796L12.9581 19.6474L13.279 20.6219L12.4456 20.0161L11.6172 20.6219L11.9381 19.6474L11.1001 19.0439H12.1296L12.4456 18.0694Z" fill="#FFF5F5"/>
</g>
<mask id="mask32_3533_103" style="mask-type:luminance" maskUnits="userSpaceOnUse" x="0" y="0" width="83" height="48">
<path d="M0 0H82.2909V48H0V0Z" fill="white"/>
</mask>
<g mask="url(#mask32_3533_103)">
<path d="M15.4908 2.84906L15.8117 3.82835H16.8316L15.9983 4.43166L16.3288 5.40869L15.4908 4.80538L14.6577 5.40869L14.9737 4.43166L14.1499 3.82835H15.1747L15.4908 2.84906Z" fill="#FFF5F5"/>
</g>
<mask id="mask33_3533_103" style="mask-type:luminance" maskUnits="userSpaceOnUse" x="0" y="0" width="83" height="48">
<path d="M0 0H82.2909V48H0V0Z" fill="white"/>
</mask>
<g mask="url(#mask33_3533_103)">
<path d="M15.4908 7.16608L15.8117 8.14048H16.8316L15.9983 8.74141L16.3288 9.72297L15.4908 9.11751L14.6577 9.72297L14.9737 8.74141L14.1499 8.14048H15.1747L15.4908 7.16608Z" fill="#FFF5F5"/>
</g>
<mask id="mask34_3533_103" style="mask-type:luminance" maskUnits="userSpaceOnUse" x="0" y="0" width="83" height="48">
<path d="M0 0H82.2909V48H0V0Z" fill="white"/>
</mask>
<g mask="url(#mask34_3533_103)">
<path d="M15.4908 11.4804L15.8117 12.455H16.8316L15.9983 13.0584L16.3288 14.0376L15.4908 13.4318L14.6577 14.0376L14.9737 13.0584L14.1499 12.455H15.1747L15.4908 11.4804Z" fill="#FFF5F5"/>
</g>
<mask id="mask35_3533_103" style="mask-type:luminance" maskUnits="userSpaceOnUse" x="0" y="0" width="83" height="48">
<path d="M0 0H82.2909V48H0V0Z" fill="white"/>
</mask>
<g mask="url(#mask35_3533_103)">
<path d="M15.4908 15.7925L15.8117 16.7717H16.8316L15.9983 17.375L16.3288 18.3497L15.4908 17.7487L14.6577 18.3497L14.9737 17.375L14.1499 16.7717H15.1747L15.4908 15.7925Z" fill="#FFF5F5"/>
</g>
<mask id="mask36_3533_103" style="mask-type:luminance" maskUnits="userSpaceOnUse" x="0" y="0" width="83" height="48">
<path d="M0 0H82.2909V48H0V0Z" fill="white"/>
</mask>
<g mask="url(#mask36_3533_103)">
<path d="M15.4908 20.107L15.8117 21.0887H16.8316L15.9983 21.6871L16.3288 22.6642L15.4908 22.0608L14.6577 22.6642L14.9737 21.6871L14.1499 21.0887H15.1747L15.4908 20.107Z" fill="#FFF5F5"/>
</g>
<mask id="mask37_3533_103" style="mask-type:luminance" maskUnits="userSpaceOnUse" x="0" y="0" width="83" height="48">
<path d="M0 0H82.2909V48H0V0Z" fill="white"/>
</mask>
<g mask="url(#mask37_3533_103)">
<path d="M18.4982 5.1214L18.8142 6.10057H19.8387L19.0103 6.70639L19.3217 7.68067L18.4982 7.07975L17.6697 7.68067L17.9808 6.70639L17.1523 6.10057H18.1772L18.4982 5.1214Z" fill="#FFF5F5"/>
</g>
<mask id="mask38_3533_103" style="mask-type:luminance" maskUnits="userSpaceOnUse" x="0" y="0" width="83" height="48">
<path d="M0 0H82.2909V48H0V0Z" fill="white"/>
</mask>
<g mask="url(#mask38_3533_103)">
<path d="M18.4982 9.43817L18.8142 10.4127H19.8387L19.0103 11.0185L19.3217 11.9928L18.4982 11.3944L17.6697 11.9928L17.9808 11.0185L17.1523 10.4127H18.1772L18.4982 9.43817Z" fill="#FFF5F5"/>
</g>
<mask id="mask39_3533_103" style="mask-type:luminance" maskUnits="userSpaceOnUse" x="0" y="0" width="83" height="48">
<path d="M0 0H82.2909V48H0V0Z" fill="white"/>
</mask>
<g mask="url(#mask39_3533_103)">
<path d="M18.4982 13.7527L18.8142 14.7294H19.8387L19.0103 15.3328L19.3217 16.3098L18.4982 15.7065L17.6697 16.3098L17.9808 15.3328L17.1523 14.7294H18.1772L18.4982 13.7527Z" fill="#FFF5F5"/>
</g>
<mask id="mask40_3533_103" style="mask-type:luminance" maskUnits="userSpaceOnUse" x="0" y="0" width="83" height="48">
<path d="M0 0H82.2909V48H0V0Z" fill="white"/>
</mask>
<g mask="url(#mask40_3533_103)">
<path d="M18.4982 18.0694L18.8142 19.0439H19.8387L19.0103 19.6474L19.3217 20.6219L18.4982 20.0161L17.6697 20.6219L17.9808 19.6474L17.1523 19.0439H18.1772L18.4982 18.0694Z" fill="#FFF5F5"/>
</g>
<mask id="mask41_3533_103" style="mask-type:luminance" maskUnits="userSpaceOnUse" x="0" y="0" width="83" height="48">
<path d="M0 0H82.2909V48H0V0Z" fill="white"/>
</mask>
<g mask="url(#mask41_3533_103)">
<path d="M21.534 2.84906L21.8549 3.82835H22.8797L22.0513 4.43166L22.372 5.40869L21.534 4.80538L20.7105 5.40869L21.0219 4.43166L20.1934 3.82835H21.218L21.534 2.84906Z" fill="#FFF5F5"/>
</g>
<mask id="mask42_3533_103" style="mask-type:luminance" maskUnits="userSpaceOnUse" x="0" y="0" width="83" height="48">
<path d="M0 0H82.2909V48H0V0Z" fill="white"/>
</mask>
<g mask="url(#mask42_3533_103)">
<path d="M21.534 7.16608L21.8549 8.14048H22.8797L22.0513 8.74141L22.372 9.72297L21.534 9.11751L20.7105 9.72297L21.0219 8.74141L20.1934 8.14048H21.218L21.534 7.16608Z" fill="#FFF5F5"/>
</g>
<mask id="mask43_3533_103" style="mask-type:luminance" maskUnits="userSpaceOnUse" x="0" y="0" width="83" height="48">
<path d="M0 0H82.2909V48H0V0Z" fill="white"/>
</mask>
<g mask="url(#mask43_3533_103)">
<path d="M21.534 11.4804L21.8549 12.455H22.8797L22.0513 13.0584L22.372 14.0376L21.534 13.4318L20.7105 14.0376L21.0219 13.0584L20.1934 12.455H21.218L21.534 11.4804Z" fill="#FFF5F5"/>
</g>
<mask id="mask44_3533_103" style="mask-type:luminance" maskUnits="userSpaceOnUse" x="0" y="0" width="83" height="48">
<path d="M0 0H82.2909V48H0V0Z" fill="white"/>
</mask>
<g mask="url(#mask44_3533_103)">
<path d="M21.534 15.7925L21.8549 16.7717H22.8797L22.0513 17.375L22.372 18.3497L21.534 17.7487L20.7105 18.3497L21.0219 17.375L20.1934 16.7717H21.218L21.534 15.7925Z" fill="#FFF5F5"/>
</g>
<mask id="mask45_3533_103" style="mask-type:luminance" maskUnits="userSpaceOnUse" x="0" y="0" width="83" height="48">
<path d="M0 0H82.2909V48H0V0Z" fill="white"/>
</mask>
<g mask="url(#mask45_3533_103)">
<path d="M21.534 20.107L21.8549 21.0887H22.8797L22.0513 21.6871L22.372 22.6642L21.534 22.0608L20.7105 22.6642L21.0219 21.6871L20.1934 21.0887H21.218L21.534 20.107Z" fill="#FFF5F5"/>
</g>
<mask id="mask46_3533_103" style="mask-type:luminance" maskUnits="userSpaceOnUse" x="0" y="0" width="83" height="48">
<path d="M0 0H82.2909V48H0V0Z" fill="white"/>
</mask>
<g mask="url(#mask46_3533_103)">
<path d="M24.5415 5.1214L24.8576 6.10057H25.8919L25.0585 6.70639L25.3748 7.68067L24.5415 7.07975L23.713 7.68067L24.0339 6.70639L23.2007 6.10057H24.2304L24.5415 5.1214Z" fill="#FFF5F5"/>
</g>
<mask id="mask47_3533_103" style="mask-type:luminance" maskUnits="userSpaceOnUse" x="0" y="0" width="83" height="48">
<path d="M0 0H82.2909V48H0V0Z" fill="white"/>
</mask>
<g mask="url(#mask47_3533_103)">
<path d="M24.5415 9.43817L24.8576 10.4127H25.8919L25.0585 11.0185L25.3748 11.9928L24.5415 11.3944L23.713 11.9928L24.0339 11.0185L23.2007 10.4127H24.2304L24.5415 9.43817Z" fill="#FFF5F5"/>
</g>
<mask id="mask48_3533_103" style="mask-type:luminance" maskUnits="userSpaceOnUse" x="0" y="0" width="83" height="48">
<path d="M0 0H82.2909V48H0V0Z" fill="white"/>
</mask>
<g mask="url(#mask48_3533_103)">
<path d="M24.5415 13.7527L24.8576 14.7294H25.8919L25.0585 15.3328L25.3748 16.3098L24.5415 15.7065L23.713 16.3098L24.0339 15.3328L23.2007 14.7294H24.2304L24.5415 13.7527Z" fill="#FFF5F5"/>
</g>
<mask id="mask49_3533_103" style="mask-type:luminance" maskUnits="userSpaceOnUse" x="0" y="0" width="83" height="48">
<path d="M0 0H82.2909V48H0V0Z" fill="white"/>
</mask>
<g mask="url(#mask49_3533_103)">
<path d="M24.5415 18.0694L24.8576 19.0439H25.8919L25.0585 19.6474L25.3748 20.6219L24.5415 20.0161L23.713 20.6219L24.0339 19.6474L23.2007 19.0439H24.2304L24.5415 18.0694Z" fill="#FFF5F5"/>
</g>
<mask id="mask50_3533_103" style="mask-type:luminance" maskUnits="userSpaceOnUse" x="0" y="0" width="83" height="48">
<path d="M0 0H82.2909V48H0V0Z" fill="white"/>
</mask>
<g mask="url(#mask50_3533_103)">
<path d="M27.5869 2.84906L27.9079 3.82835H28.9324L28.1039 4.43166L28.4153 5.40869L27.5869 4.80538L26.7633 5.40869L27.0745 4.43166L26.2461 3.82835H27.2708L27.5869 2.84906Z" fill="#FFF5F5"/>
</g>
<mask id="mask51_3533_103" style="mask-type:luminance" maskUnits="userSpaceOnUse" x="0" y="0" width="83" height="48">
<path d="M0 0H82.2909V48H0V0Z" fill="white"/>
</mask>
<g mask="url(#mask51_3533_103)">
<path d="M27.5869 7.16608L27.9079 8.14048H28.9324L28.1039 8.74141L28.4153 9.72297L27.5869 9.11751L26.7633 9.72297L27.0745 8.74141L26.2461 8.14048H27.2708L27.5869 7.16608Z" fill="#FFF5F5"/>
</g>
<mask id="mask52_3533_103" style="mask-type:luminance" maskUnits="userSpaceOnUse" x="0" y="0" width="83" height="48">
<path d="M0 0H82.2909V48H0V0Z" fill="white"/>
</mask>
<g mask="url(#mask52_3533_103)">
<path d="M27.5869 11.4804L27.9079 12.455H28.9324L28.1039 13.0584L28.4153 14.0376L27.5869 13.4318L26.7633 14.0376L27.0745 13.0584L26.2461 12.455H27.2708L27.5869 11.4804Z" fill="#FFF5F5"/>
</g>
<mask id="mask53_3533_103" style="mask-type:luminance" maskUnits="userSpaceOnUse" x="0" y="0" width="83" height="48">
<path d="M0 0H82.2909V48H0V0Z" fill="white"/>
</mask>
<g mask="url(#mask53_3533_103)">
<path d="M27.5869 15.7925L27.9079 16.7717H28.9324L28.1039 17.375L28.4153 18.3497L27.5869 17.7487L26.7633 18.3497L27.0745 17.375L26.2461 16.7717H27.2708L27.5869 15.7925Z" fill="#FFF5F5"/>
</g>
<mask id="mask54_3533_103" style="mask-type:luminance" maskUnits="userSpaceOnUse" x="0" y="0" width="83" height="48">
<path d="M0 0H82.2909V48H0V0Z" fill="white"/>
</mask>
<g mask="url(#mask54_3533_103)">
<path d="M27.5869 20.107L27.9079 21.0887H28.9324L28.1039 21.6871L28.4153 22.6642L27.5869 22.0608L26.7633 22.6642L27.0745 21.6871L26.2461 21.0887H27.2708L27.5869 20.107Z" fill="#FFF5F5"/>
</g>
<mask id="mask55_3533_103" style="mask-type:luminance" maskUnits="userSpaceOnUse" x="0" y="0" width="83" height="48">
<path d="M0 0H82.2909V48H0V0Z" fill="white"/>
</mask>
<g mask="url(#mask55_3533_103)">
<path d="M30.5943 5.1214L30.9054 6.10057H31.9349L31.1113 6.70639L31.4178 7.68067L30.5943 7.07975L29.7562 7.68067L30.0769 6.70639L29.2534 6.10057H30.2734L30.5943 5.1214Z" fill="#FFF5F5"/>
</g>
<mask id="mask56_3533_103" style="mask-type:luminance" maskUnits="userSpaceOnUse" x="0" y="0" width="83" height="48">
<path d="M0 0H82.2909V48H0V0Z" fill="white"/>
</mask>
<g mask="url(#mask56_3533_103)">
<path d="M30.5943 9.43817L30.9054 10.4127H31.9349L31.1113 11.0185L31.4178 11.9928L30.5943 11.3944L29.7562 11.9928L30.0769 11.0185L29.2534 10.4127H30.2734L30.5943 9.43817Z" fill="#FFF5F5"/>
</g>
<mask id="mask57_3533_103" style="mask-type:luminance" maskUnits="userSpaceOnUse" x="0" y="0" width="83" height="48">
<path d="M0 0H82.2909V48H0V0Z" fill="white"/>
</mask>
<g mask="url(#mask57_3533_103)">
<path d="M30.5943 13.7527L30.9054 14.7294H31.9349L31.1113 15.3328L31.4178 16.3098L30.5943 15.7065L29.7562 16.3098L30.0769 15.3328L29.2534 14.7294H30.2734L30.5943 13.7527Z" fill="#FFF5F5"/>
</g>
<mask id="mask58_3533_103" style="mask-type:luminance" maskUnits="userSpaceOnUse" x="0" y="0" width="83" height="48">
<path d="M0 0H82.2909V48H0V0Z" fill="white"/>
</mask>
<g mask="url(#mask58_3533_103)">
<path d="M30.5943 18.0694L30.9054 19.0439H31.9349L31.1113 19.6474L31.4178 20.6219L30.5943 20.0161L29.7562 20.6219L30.0769 19.6474L29.2534 19.0439H30.2734L30.5943 18.0694Z" fill="#FFF5F5"/>
</g>
<mask id="mask59_3533_103" style="mask-type:luminance" maskUnits="userSpaceOnUse" x="0" y="0" width="83" height="48">
<path d="M0 0H82.2909V48H0V0Z" fill="white"/>
</mask>
<g mask="url(#mask59_3533_103)">
<path d="M33.6297 2.84906L33.9555 3.82835H34.9754L34.1469 4.43166L34.4676 5.40869L33.6297 4.80538L32.8061 5.40869L33.1174 4.43166L32.2891 3.82835H33.3137L33.6297 2.84906Z" fill="#FFF5F5"/>
</g>
<mask id="mask60_3533_103" style="mask-type:luminance" maskUnits="userSpaceOnUse" x="0" y="0" width="83" height="48">
<path d="M0 0H82.2909V48H0V0Z" fill="white"/>
</mask>
<g mask="url(#mask60_3533_103)">
<path d="M33.6297 7.16608L33.9555 8.14048H34.9754L34.1469 8.74141L34.4676 9.72297L33.6297 9.11751L32.8061 9.72297L33.1174 8.74141L32.2891 8.14048H33.3137L33.6297 7.16608Z" fill="#FFF5F5"/>
</g>
<mask id="mask61_3533_103" style="mask-type:luminance" maskUnits="userSpaceOnUse" x="0" y="0" width="83" height="48">
<path d="M0 0H82.2909V48H0V0Z" fill="white"/>
</mask>
<g mask="url(#mask61_3533_103)">
<path d="M33.6297 11.4804L33.9555 12.455H34.9754L34.1469 13.0584L34.4676 14.0376L33.6297 13.4318L32.8061 14.0376L33.1174 13.0584L32.2891 12.455H33.3137L33.6297 11.4804Z" fill="#FFF5F5"/>
</g>
<mask id="mask62_3533_103" style="mask-type:luminance" maskUnits="userSpaceOnUse" x="0" y="0" width="83" height="48">
<path d="M0 0H82.2909V48H0V0Z" fill="white"/>
</mask>
<g mask="url(#mask62_3533_103)">
<path d="M33.6297 15.7925L33.9555 16.7717H34.9754L34.1469 17.375L34.4676 18.3497L33.6297 17.7487L32.8061 18.3497L33.1174 17.375L32.2891 16.7717H33.3137L33.6297 15.7925Z" fill="#FFF5F5"/>
</g>
<mask id="mask63_3533_103" style="mask-type:luminance" maskUnits="userSpaceOnUse" x="0" y="0" width="83" height="48">
<path d="M0 0H82.2909V48H0V0Z" fill="white"/>
</mask>
<g mask="url(#mask63_3533_103)">
<path d="M33.6297 20.107L33.9555 21.0887H34.9754L34.1469 21.6871L34.4676 22.6642L33.6297 22.0608L32.8061 22.6642L33.1174 21.6871L32.2891 21.0887H33.3137L33.6297 20.107Z" fill="#FFF5F5"/>
</g>
</g>
</g>
<defs>
<clipPath id="clip0_3533_103">
<rect width="72" height="48" fill="white"/>
</clipPath>
</defs>
</svg>
